<?xml version="1.0" encoding="utf-8"?>
<!-- Generator: Adobe Illustrator 19.1.0, SVG Export Plug-In . SVG Version: 6.00 Build 0)  -->
<svg version="1.1" id="Ebene_1" xmlns="http://www.w3.org/2000/svg" xmlns:xlink="http://www.w3.org/1999/xlink" x="0px" y="0px"
	 width="141.8px" height="100px" viewBox="0 0 141.8 100" style="enable-background:new 0 0 141.8 100;" xml:space="preserve">
<g>
	<polygon points="104.5,37.4 141.8,76 141.8,3.7 	"/>
	<path d="M46.8,22.6l-21-18.9v18.9c3.4-0.8,6.9-1.3,10.5-1.3C39.9,21.3,43.4,21.8,46.8,22.6z"/>
	<polygon points="137.7,0 30,0 83.9,48.5 	"/>
	<path d="M83.9,55.9l-6.8-6.1c1.7,4.6,2.6,9.6,2.6,14.8c0,5.4-1,10.5-2.8,15.3h61l-37.6-38.8L83.9,55.9z"/>
	<path d="M53.9,90.6c-4.3,1.7-9.4,2.5-15.4,2.5c-6.2,0-11.7-1-16.5-3c-4.8-2-8.5-5.1-11.2-9.5c-2.7-4.3-4-9.1-4-14.4
		c0-5.4,1.2-10.6,3.6-15.7c2.4-5,5.9-8.9,10.6-11.7c4.7-2.8,10.5-4.1,17.2-4.1c8,0,14.2,2.1,18.6,6.2c4.4,4.1,6.7,9.3,6.7,15.4
		c0,3.4-0.8,6.7-2.4,9.9c-1.6,3.2-3.6,5.7-6.2,7.6c-1.9,1.4-3.4,2.2-4.6,2.2c-0.4,0-0.7-0.2-1-0.5c-0.3-0.3-0.4-0.8-0.4-1.4
		c0-0.5,0.2-1.6,0.5-3.3l5.7-26.9h-9.9l-0.9,4.2c-2.1-3.4-5.4-5.1-9.9-5.1c-6.2,0-11.4,2.9-15.4,8.8c-3.3,4.8-4.9,10.2-4.9,16.1
		c0,4.7,1.4,8.6,4.1,11.4c2.7,2.9,6.2,4.3,10.3,4.3c3.8,0,7.2-1.4,10.2-4.3c0.4,1.4,1.1,2.5,2.1,3.2c1,0.7,2.6,1.1,4.7,1.1
		c7.7,0,14-3.2,18.9-9.7c3.9-5.1,5.9-10.9,5.9-17.3c0-5.3-1.3-10.3-3.9-14.8c-2.6-4.5-6.3-8-11.2-10.4c-4.9-2.4-10.5-3.7-16.8-3.7
		c-7.4,0-14,1.5-19.8,4.6c-5.8,3-10.3,7.6-13.6,13.6c-3.3,6.1-5,12.6-5,19.6c0,6.4,1.5,12.3,4.4,17.7c2.9,5.4,7.4,9.5,13.4,12.3
		c6,2.8,13.1,4.2,21.4,4.2c8.5,0,15.7-1.6,21.7-4.9c5.2-2.9,9-6.8,11.5-11.9h-8C61.7,86.5,58.2,88.9,53.9,90.6z M40.8,66.9
		c-1,2.9-2.1,5.1-3.4,6.7c-0.9,1.1-1.9,1.9-2.8,2.4c-1.2,0.7-2.6,1-4,1c-1.9,0-3.5-0.7-4.8-2.2c-1.3-1.5-1.9-3.8-1.9-7
		c0-2.4,0.5-5.1,1.4-8.2c0.9-3.1,2.3-5.4,4.1-7.1c1.8-1.7,3.8-2.5,6-2.5c2,0,3.7,0.8,5,2.3c1.3,1.5,2,3.7,2,6.5
		C42.2,61.3,41.7,64,40.8,66.9z"/>
</g>
</svg>
