<?xml version="1.0" encoding="utf-8"?>
<!-- Generator: Adobe Illustrator 19.1.0, SVG Export Plug-In . SVG Version: 6.00 Build 0)  -->
<!DOCTYPE svg PUBLIC "-//W3C//DTD SVG 1.1//EN" "http://www.w3.org/Graphics/SVG/1.1/DTD/svg11.dtd">
<svg version="1.1" id="Ebene_1" xmlns="http://www.w3.org/2000/svg" xmlns:xlink="http://www.w3.org/1999/xlink" x="0px" y="0px"
	 viewBox="-233.5 384.4 73 73" style="enable-background:new -233.5 384.4 73 73;" xml:space="preserve">
<g>
	<path d="M-197,384.4c-20.2,0-36.5,16.3-36.5,36.5s16.3,36.5,36.5,36.5s36.5-16.3,36.5-36.5S-176.8,384.4-197,384.4z
		 M-180.8,417.6c6.3,0,11.5,5.1,11.4,11.4c0,6.3-5.1,11.4-11.4,11.4s-11.4-5.1-11.4-11.4C-192.2,422.7-187.1,417.6-180.8,417.6z
		 M-219.4,409.2c4.2-4.5,11-4.8,15.9-0.6c1.9,1.7,1.9,1.7,4.1-0.1c3.7-3.1,7.9-3.8,12.3-1.8c3.9,1.8,5.9,5.2,6.2,9.1
		c-5.7,0-10.4,3.6-12.3,8.6h-2.1l-2.4-2.9c-0.1-0.1-0.4-0.2-0.6-0.2s-0.4,0.2-0.5,0.4l-2.6,6l-2.7-12.1c-0.1-0.3-0.4-0.5-0.7-0.5
		s-0.6,0.2-0.7,0.5l-2.2,8.9c-2.4,0-11,0-11.6,0C-223.5,419.9-223.5,413.6-219.4,409.2z M-200.1,440.5c-1.1,1.1-2,1.1-3.1,0
		c-4.9-4.9-9.9-9.8-14.8-14.7c1,0,10.8,0,10.8,0c0.4,0,0.6-0.2,0.7-0.5l1.7-6.6l2.5,11.4c0.1,0.3,0.3,0.5,0.7,0.5
		c0.3,0,0.5-0.2,0.6-0.4l3-6.9l1.9,2.3c0.1,0.1,0.3,0.2,0.5,0.2h2c-0.3,1-0.4,2.1-0.4,3.2c0,1.6,0.3,3.2,0.8,4.6
		C-195.5,435.9-197.8,438.2-200.1,440.5z"/>
	<path d="M-185.1,428.5c0,1.9,1.6,2.6,3.7,3.3c1.6,0.5,2.2,0.9,2.2,1.7c0,0.9-0.9,1.3-2,1.3c-1.2,0-2.3-0.5-2.8-0.8
		l-0.5,1.5c0.9,0.6,2.2,0.9,3.4,0.9c1.8,0,4.1-0.8,4.1-3.1c0-0.8-0.4-1.5-0.8-1.8c0.9-0.6,1.4-1.4,1.4-2.4c0-1.9-1.5-2.7-3.5-3.3
		c-1.5-0.4-2.3-0.8-2.3-1.6c0-0.7,0.8-1.2,1.9-1.2c1.1,0,1.9,0.3,2.5,0.6l0.4-1.6c-0.8-0.4-1.8-0.6-2.9-0.6c-2.2,0-4,1.1-4,3
		c0,0.7,0.4,1.4,0.8,1.7C-184.6,426.7-185.1,427.7-185.1,428.5z M-183.1,428.2c0-0.4,0.3-0.9,0.8-1.2c0.6,0.3,1.7,0.7,2.5,1
		c1.1,0.4,1.5,0.9,1.5,1.6c0,0.4-0.3,0.9-0.7,1.2c-0.5-0.3-1.3-0.6-2.3-0.9C-182.7,429.4-183.2,428.9-183.1,428.2z"/>
</g>
</svg>
