<?xml version="1.0" encoding="UTF-8" standalone="no"?>
<!-- Generator: Adobe Illustrator 19.2.1, SVG Export Plug-In . SVG Version: 6.00 Build 0)  -->
<svg
    xmlns="http://www.w3.org/2000/svg"
    version="1.1"
    x="0px"
    y="0px"
    width="206.5"
    height="119.7"
    viewBox="0 0 206.5 119.7"
    xml:space="preserve">
    <path d="m 41,56.6 c 8.2,0 14.9,-6.7 14.9,-14.9 C 55.9,33.5 49.2,26.8 41,26.8 32.7,26.8 26.1,33.5 26.1,41.7 26,50
        32.7,56.6 41,56.6" />
    <path d="M 158.5,42.5 V 32.1 c -12.2,-10 -87.8,-8 -95.1,0 v 25.3 h 72.9 c 5.5,-7.2 13.2,-12.5 22.2,-14.9 z" />
    <path d="m 169.5,45.7 c -20.4,0 -37,16.6 -37,37 0,20.4 16.6,37 37,37 20.4,0 37,-16.6 37,-37 0,-20.4 -16.6,-37
        -37,-37 z m 3.2,56.5 c -5.7,0 -10.9,-2.3 -14.2,-6.6 -1.6,-2 -2.7,-4.4 -3.3,-7.6 h -3.8 v -4 h 3.2 c 0,-0.3
        0,-0.7 0,-1 0,-0.6 0.1,-1.2 0.1,-1.7 h -3.3 v -4.1 h 3.9 c 0.7,-3.1 2.1,-5.8 4,-7.9 3.3,-3.7 7.9,-5.9 13.3,-5.9
        3.6,0 6.6,0.8 8.7,1.8 l -1.5,6.4 c -1.5,-0.7 -3.9,-1.4 -6.4,-1.4 -2.8,0 -5.3,0.9 -7.1,3.1 -0.8,0.9 -1.5,2.2
        -1.9,3.8 H 179 v 4.1 h -15.3 c -0.1,0.5 -0.1,1.2 -0.1,1.8 0,0.4 0,0.6 0,1 h 15.3 v 4.1 h -14.5 c 0.4,1.7 1,3
        1.9,4.1 1.9,2.1 4.6,3 7.5,3 2.7,0 5.4,-0.9 6.6,-1.5 l 1.4,6.4 c -2,1 -5.4,2.1 -9.1,2.1 z" />
    <g>
        <path d="m 127.7,82.7 c 0,-5.5 1.1,-10.8 3,-15.6 H 17.1 V 8.5 C 17.1,3.8 13.3,0 8.6,0 3.9,0 0,3.8 0,8.5 v 82.9 c
            0,4.7 3.8,8.5 8.5,8.5 4.7,0 8.5,-3.8 8.5,-8.5 v -7.3 h 110.8 c 0,-0.5 -0.1,-0.9 -0.1,-1.4 z" />
        <path d="m 169.5,41 c 4.7,0 9.1,0.8 13.3,2.2 V 32.9 c 0.1,-4.7 -3.7,-8.5 -8.4,-8.5 -4.7,0 -8.5,3.8 -8.5,8.5 v
            8.3 c 1.2,-0.1 2.4,-0.2 3.6,-0.2 z" />
    </g>
</svg>