<?xml version="1.0" encoding="UTF-8" ?>
<svg version="1.1" id="Ebene_1" xmlns="http://www.w3.org/2000/svg" xmlns:xlink="http://www.w3.org/1999/xlink" x="0px" y="0px" viewBox="0 0 42.4 28.3" style="enable-background:new 0 0 42.4 28.3;" xml:space="preserve">
	<g>
		<g><path d="M32.2,8.4c-0.1,2.7-1,4.8-2.8,6.5c-4,4-8.1,8-12.1,12c-0.9,0.9-1.5,0.9-2.4,0c-4-4-8.1-8-12.1-12    c-3.5-3.5-3.7-8.7-0.4-12.1c3.3-3.5,8.5-3.7,12.3-0.4c1.5,1.3,1.5,1.3,3.1-0.1c2.9-2.4,6.1-2.9,9.5-1.4C30.5,2.4,32,5.2,32.2,8.4z"/></g>
		<g><path style="fill: #fff;" d="M16.1,19.4L16.1,19.4c-0.3,0-0.5-0.2-0.5-0.4l-2-8.8l-1.3,5.1c-0.1,0.2-0.3,0.4-0.5,0.4c0,0-7.5,0-8.3,0    c-0.6-0.6-1-1.1-1-1.1c0.2,0,7.1,0,9,0l1.7-6.8c0.1-0.2,0.3-0.4,0.5-0.4s0.5,0.2,0.5,0.4l2.1,9.3l2-4.6c0.1-0.2,0.2-0.3,0.4-0.3    c0.2,0,0.4,0,0.5,0.2l1.8,2.2h10.6v1.1H20.7c-0.2,0-0.3-0.1-0.4-0.2l-1.4-1.8L16.6,19C16.5,19.2,16.3,19.4,16.1,19.4z" /></g>
		<g>
			<circle cx="32.2" cy="18.1" r="9.5" />
			<path style="fill: #fff;" d="M32.2,28.3c-5.6,0-10.2-4.6-10.2-10.2S26.6,7.9,32.2,7.9s10.2,4.6,10.2,10.2S37.8,28.3,32.2,28.3z M32.2,9.3    c-4.9,0-8.8,3.9-8.8,8.8s3.9,8.8,8.8,8.8c4.8,0,8.8-3.9,8.8-8.8C41,13.3,37,9.3,32.2,9.3z" />
		</g>
		<polygon style="fill: #fff;" points="30.5,22.8 26,18.2 27.8,16.3 30.5,19 36.2,13.3 38.1,15.2" />
	</g>
</svg>