<?xml version="1.0" encoding="UTF-8" standalone="no"?>
<!-- Generator: Adobe Illustrator 19.2.1, SVG Export Plug-In . SVG Version: 6.00 Build 0)  -->
<svg
    xmlns="http://www.w3.org/2000/svg"
    version="1.1"
    x="0px"
    y="0px"
    width="77.161049"
    height="100.11748"
    viewBox="0 0 77.16105 100.11748"
    xml:space="preserve">
    <path d="m 76.868914,20.932634 c -1.2,-4.7 -2.9,-9.2 -5.3,-13.4 -4.5,-7.89999998 -14.8,-9.9 -21.5,-4.5 -8.4,6.8 -9.1,6.8
        -18.9,1.1 -12.7,-7.4 -23.3000004,-3.49999998 -28.8000004,10.4 -5.3,13.3 -1.1,24.6 6.6,35.4 1.5000004,2.1
        3.5000004,3.9 3.1000004,7.1 -1.1,10.6 2.4,20.4 5.5,30.3 1.2,3.6 2.8,7.1 5.5,10 2,2.1 4.2,3.599996 7.2,2.3 2.6,-1.2
        2.9,-3.8 2.7,-6.4 -0.3,-4.5 -0.7,-9 -1.1,-13.5 0.2,-5.2 -0.2,-10.3 1.5,-15.4 1.4,-4.1 3.4,-7.6 8.1,-7.9 5,-0.3 7.8,3
        9.6,7.1 2.7,6.2 2.4,12.7 2.1,19.2 -0.2,4.2 -2,10.3 3.7,11.5 5.4,1.1 6.9,-4.8 8.7,-8.7 1.2,-2.4 2.5,-6.5 4,-12.2
        1.3,-5.9 0.6,-14 2.9,-21.4 2.9,-9.3 5.6,-19.2 4.4,-31 z" />
</svg>