<?xml version="1.0" encoding="utf-8"?>
<!-- Generator: Adobe Illustrator 19.1.0, SVG Export Plug-In . SVG Version: 6.00 Build 0)  -->
<svg version="1.1" id="Ebene_1" xmlns="http://www.w3.org/2000/svg" xmlns:xlink="http://www.w3.org/1999/xlink" x="0px" y="0px"
	 width="100px" height="100px" viewBox="0 0 100 100" style="enable-background:new 0 0 100 100;" xml:space="preserve">
<path d="M50,0C22.4,0,0,22.4,0,50s22.4,50,50,50s50-22.4,50-50S77.6,0,50,0z M72.9,81.5H27.4V71.1l8.4-7.5
	C48.4,52.8,54.7,46.3,54.7,40c0-4.5-3-7.7-9.3-7.7c-5.1,0-9.8,2.6-13.2,5L27.5,25c4.8-3.5,12.5-6.5,21.3-6.5
	c14.4,0,22.9,7.8,22.9,20c0,9.9-7,17.9-14.3,23.9l-6.1,4.8v0.3h21v14H72.9z"/>
</svg>
