<?xml version="1.0" encoding="utf-8"?>
<!-- Generator: Adobe Illustrator 21.1.0, SVG Export Plug-In . SVG Version: 6.00 Build 0)  -->
<svg version="1.1" id="Ebene_1" xmlns="http://www.w3.org/2000/svg" xmlns:xlink="http://www.w3.org/1999/xlink" x="0px" y="0px"
	 width="258.2px" height="100px" viewBox="0 0 258.2 100" style="enable-background:new 0 0 258.2 100;" xml:space="preserve">
<path d="M254.7,0H138.2c-1.9,0-3.5,1.5-3.5,3.5v30.8h-11.1V3.5c0-1.9-1.5-3.5-3.5-3.5H3.5C1.5,0,0,1.5,0,3.5v71.8
	c0,1.9,1.5,3.5,3.5,3.5H52v8.4l-23.2,8.1c-5.8,1.9-4.6,4.7-4.6,4.7h74.9c0,0,1.2-2.8-4.6-4.7l-23.2-8.1v-8.4H120
	c1.9,0,3.5-1.5,3.5-3.5V44.6h11.1v30.8c0,1.9,1.5,3.5,3.5,3.5h48.6v8.4l-23.2,8.1c-5.8,1.9-4.6,4.7-4.6,4.7h74.9
	c0,0,1.2-2.8-4.6-4.7L206,87.2v-8.4h48.8c1.9,0,3.5-1.5,3.5-3.5V3.5C258.2,1.5,256.6,0,254.7,0z M109.5,34.1H93.9v-9.7L79,39.3
	l14.9,14.9v-9.7h15.6v0.1v22.9H14.1V11.2h95.4V34.1z M244.2,67.5h-95.4v-23h15.5v9.7l14.9-14.9l-14.9-14.9v9.7h-15.5v-23h95.4V67.5z
	"/>
</svg>
