<?xml version="1.0" encoding="utf-8"?>
<!-- Generator: Adobe Illustrator 21.0.2, SVG Export Plug-In . SVG Version: 6.00 Build 0)  -->
<svg version="1.1" id="Ebene_1" xmlns="http://www.w3.org/2000/svg" xmlns:xlink="http://www.w3.org/1999/xlink" x="0px" y="0px"
	 viewBox="0 0 74.9 100" style="enable-background:new 0 0 74.9 100;" xml:space="preserve">
<path fill="#005ea8" d="M16.6,99.9c-2.8,0.5-6.5-0.4-8.7-1.9c-6.6-4.3-8.3-9.6-7.8-11s3-6.5,5.9-10.8c2.8-4.3,5.1-6.8,7.1-9.1
	c2-2.3,10.5,4.9,14.4,1.9c2.7-2.1,8.7-10.9,12.9-16.9c4.1-7,9.5-15.5,10.3-18.8c1.2-4.8-8.8-9.8-7.5-12.5c1.3-2.7,2.6-5.9,5.4-10.2
	c2.8-4.3,6.4-8.7,7.5-9.8c1.1-1,6.6-1.6,13.2,2.7c3,1.9,6.1,6.5,5.4,9.7c-2.5,11.3-10.5,28.9-22,47C42.4,75.2,31.2,89,22.3,96.6
	L16.6,99.9z"/>
</svg>
