<?xml version="1.0" encoding="UTF-8" standalone="no"?>
<!-- Generator: Adobe Illustrator 19.2.1, SVG Export Plug-In . SVG Version: 6.00 Build 0)  -->
<svg
    xmlns="http://www.w3.org/2000/svg"
    version="1.1"
    x="0px"
    y="0px"
    width="233.3"
    height="194.7"
    viewBox="0 0 233.3 194.7"
    xml:space="preserve">
    <polygon
        points="106,116.1 136.9,98.2 167.8,116.1 161.2,79.7 186.9,54.3 151.9,49.7 136.9,16.1 121.9,49.7 86.9,54.3 112.6,79.7 "
        transform="translate(-22.6,-16.1)" />
    <polygon
        points="41.7,210.6 72.6,192.7 103.5,210.6 96.9,174.2 122.6,148.8 87.6,144.2 72.6,110.6 57.6,144.2 22.6,148.8 48.3,174.2 "
        transform="translate(-22.6,-16.1)" />
    <polygon
        points="175,210.8 205.9,192.9 236.8,210.8 230.2,174.4 255.9,149 220.9,144.4 205.9,110.8 190.9,144.4 155.9,149 181.6,174.4 "
        transform="translate(-22.6,-16.1)" />
</svg>