<?xml version="1.0" encoding="utf-8"?>
<!-- Generator: Adobe Illustrator 21.0.0, SVG Export Plug-In . SVG Version: 6.00 Build 0)  -->
<svg version="1.1" id="Ebene_1" xmlns="http://www.w3.org/2000/svg" xmlns:xlink="http://www.w3.org/1999/xlink" x="0px" y="0px"
	 viewBox="0 0 70 100" style="enable-background:new 0 0 70 100;" xml:space="preserve">
<path d="M34.6,70.7c0-4.8,1.8-9.1,4.9-12.2H7.3v-3.2h36.2c2.6-1.5,5.7-2.4,8.9-2.4c2.9,0,5.8,0.8,8.2,2v-35H40.8V0H0
	v79.3h37C35.6,76.7,34.6,73.7,34.6,70.7z M7.3,16.7h29.3v3.2H7.3V16.7z M7.3,29.2h45v3.2h-45V29.2z M7.3,42.8h45V46h-45V42.8z"/>
<polygon points="45,0 45,15.6 60.7,15.6 "/>
<path d="M65,77.7c3-5.1,2.9-11.6-1-16.5c-4.9-6.3-14.2-7.6-20.6-2.7c-6,4.5-7.3,12.7-3.5,19.1l-5,18.6l9-5.2l5.2,9
	l3.3-12.4l3.3,12.4l5.2-9l9,5.2L65,77.7z M52.4,81.2c-6.1,0-11-4.9-11-11s4.9-11,11-11s11,4.9,11,11S58.6,81.2,52.4,81.2z"/>
</svg>
