<?xml version="1.0" encoding="utf-8"?>
<!-- Generator: Adobe Illustrator 19.2.1, SVG Export Plug-In . SVG Version: 6.00 Build 0)  -->
<svg version="1.1" id="Ebene_1" xmlns="http://www.w3.org/2000/svg" xmlns:xlink="http://www.w3.org/1999/xlink" x="0px" y="0px"
	 viewBox="0 0 113.1 100" style="enable-background:new 0 0 113.1 100;" xml:space="preserve">
<g>
	<rect x="51.3" y="32" width="9.9" height="34.4"/>
	<path d="M56.5,73.9c-3.5,0-6.2,2.8-6.2,6.2c0,3.5,2.8,6.2,6.2,6.2c3.4,0,6.1-2.8,6.2-6.2
		C62.7,76.6,59.9,73.9,56.5,73.9z"/>
	<path d="M112.5,93.3l-52.1-91C59.6,0.8,58,0,56.5,0s-3,0.8-3.9,2.3l-52,91c-1.7,3,0.4,6.7,3.9,6.7h104.1
		C112,100,114.2,96.3,112.5,93.3z M8.4,93.2L56.5,9.1l48.1,84.2H8.4z"/>
</g>
</svg>
