<?xml version="1.0" encoding="utf-8"?>
<!-- Generator: Adobe Illustrator 19.1.0, SVG Export Plug-In . SVG Version: 6.00 Build 0)  -->
<svg version="1.1" id="Ebene_1" xmlns="http://www.w3.org/2000/svg" xmlns:xlink="http://www.w3.org/1999/xlink" x="0px" y="0px"
	 width="78.5px" height="100px" viewBox="0 0 78.5 100" style="enable-background:new 0 0 78.5 100;" xml:space="preserve">
<path d="M63.1,65.8c-10.9-1.1-19.9,8-18.8,18.8c0.8,8,7.3,14.5,15.3,15.3c10.9,1.1,19.9-8,18.8-18.8
	C77.6,73.1,71.1,66.6,63.1,65.8z M58.1,92.9l-9.6-9.6l4-4l5.6,5.6l12.1-12l4,4L58.1,92.9z"/>
<path d="M47.8,23.3V0H0v93.1h43.2c-1.7-3-2.7-6.5-2.7-10.2c0-5.5,2.2-10.6,5.7-14.3H18.4v-3.7h32.5
	c3.1-1.8,6.7-2.9,10.5-2.9c3.5,0,6.8,0.9,9.6,2.4V23.3H47.8z M10.3,70.8c-2.5,0-4.5-2.3-3.9-5c0.3-1.5,1.5-2.6,3-3
	c2.6-0.6,5,1.4,5,3.9C14.4,69,12.5,70.8,10.3,70.8z M11.4,55.5c-3.1,0.8-5.8-1.9-5-5c0.4-1.3,1.4-2.4,2.8-2.8c3.1-0.8,5.8,1.9,5,5
	C13.8,54.1,12.7,55.2,11.4,55.5z M10.3,40.7c-2.6,0-4.7-2.4-4.1-5.2c0.4-1.5,1.6-2.7,3.1-3.1c2.7-0.6,5.2,1.4,5.2,4.1
	C14.5,38.8,12.6,40.7,10.3,40.7z M10.3,25.5c-2.6,0-4.7-2.4-4.1-5.2c0.4-1.5,1.6-2.7,3.1-3.1c2.7-0.6,5.2,1.4,5.2,4.1
	C14.5,23.7,12.6,25.5,10.3,25.5z M18.4,19.6h24.5v3.7H18.4V19.6z M61.2,53.9H18.4v-3.7h42.8L61.2,53.9z M61.2,38H18.4v-3.7h42.8
	L61.2,38z"/>
<polygon points="52.6,18.4 71,18.4 52.6,0 "/>
</svg>
