<?xml version="1.0" encoding="utf-8"?>
<!-- Generator: Adobe Illustrator 19.2.1, SVG Export Plug-In . SVG Version: 6.00 Build 0)  -->
<svg version="1.1" id="Ebene_1" xmlns="http://www.w3.org/2000/svg" xmlns:xlink="http://www.w3.org/1999/xlink" x="0px" y="0px"
	 viewBox="0 0 100 100" style="enable-background:new 0 0 100 100;" xml:space="preserve">
<style type="text/css">
	.st0{fill:#E84436;}
	.st1{fill:#527BBD;}
	.st2{fill:#FBBC0C;}
	.st3{fill:#34A953;}
	.st4{fill:none;}
</style>
<g id="super-g" transform="translate(11.000000, 11.000000)">
	<path id="Shape" class="st0" d="M39,8.3c9.4,0,15.7,4.1,19.3,7.4L72.4,2C63.8-6.1,52.5-11,39-11C19.4-11,2.6,0.2-5.7,16.6
		l16.2,12.6C14.6,17.1,25.8,8.3,39,8.3L39,8.3z"/>
	<path id="Shape_1_" class="st1" d="M87,40.1c0-4.1-0.3-7.1-1.1-10.2H39v18.6h27.6C66,53.1,63,60,56.3,64.7l15.8,12.2
		C81.6,68.2,87,55.3,87,40.1L87,40.1z"/>
	<path id="Shape_2_" class="st2" d="M10.6,48.9c-1.1-3.1-1.7-6.4-1.7-9.9s0.6-6.8,1.6-9.9L-5.7,16.6C-9.1,23.3-11,30.9-11,39
		s1.9,15.7,5.3,22.4L10.6,48.9L10.6,48.9z"/>
	<path id="Shape_3_" class="st3" d="M39,89c13.5,0,24.8-4.4,33.1-12.1L56.3,64.7c-4.2,2.9-9.9,5-17.3,5c-13.2,0-24.4-8.7-28.4-20.8
		L-5.6,61.4C2.6,77.8,19.4,89,39,89L39,89z"/>
	<polygon id="Shape_4_" class="st4" points="-11,-11 89,-11 89,89 -11,89 	"/>
</g>
</svg>
