<?xml version="1.0" encoding="utf-8"?>
<!-- Generator: Adobe Illustrator 19.1.0, SVG Export Plug-In . SVG Version: 6.00 Build 0)  -->
<!DOCTYPE svg PUBLIC "-//W3C//DTD SVG 1.1//EN" "http://www.w3.org/Graphics/SVG/1.1/DTD/svg11.dtd">
<svg version="1.1" id="Ebene_1" xmlns="http://www.w3.org/2000/svg" xmlns:xlink="http://www.w3.org/1999/xlink" x="0px" y="0px"
	 viewBox="-494 777.8 64 64" style="enable-background:new -494 777.8 64 64;" xml:space="preserve">
<g>
	<g>
		<circle cx="-473.1" cy="812" r="1.8"/>
		<path d="M-473.1,817c-1,0-1.8,0.8-1.8,1.8s0.8,1.8,1.8,1.8s1.8-0.8,1.8-1.8C-471.3,817.7-472.2,817-473.1,817z"/>
		<rect x="-469.6" y="797.8" width="10.9" height="1.6"/>
		<rect x="-469.6" y="804.3" width="19.1" height="1.6"/>
		<path d="M-473.1,803.5c-1,0-1.9,0.8-1.9,1.9c0,1,0.8,1.9,1.9,1.9c1,0,1.9-0.8,1.9-1.9
			C-471.3,804.3-472.1,803.5-473.1,803.5z"/>
		<rect x="-469.6" y="811.4" width="19.1" height="1.6"/>
		<polygon points="-451.9,826.8 -454.4,824.3 -456.2,826 -451.9,830.3 -444.7,823.2 -446.5,821.4 		"/>
		<path d="M-473.1,796.7c-1,0-1.9,0.8-1.9,1.9c0,1,0.8,1.9,1.9,1.9c1,0,1.9-0.8,1.9-1.9
			C-471.3,797.5-472.1,796.7-473.1,796.7z"/>
		<path d="M-462,777.8c-17.7,0-32,14.3-32,32s14.3,32,32,32s32-14.3,32-32S-444.3,777.8-462,777.8z M-454.3,789.1
			l8.2,8.2h-8.2V789.1z M-477.7,830.4v-41.3h21.2v10.4h10.4v18.3c-1.3-0.7-2.8-1.1-4.3-1.1c-1.7,0-3.3,0.4-4.7,1.3h-14.5v1.6h12.4
			c-1.5,1.7-2.6,3.9-2.6,6.3c0,1.7,0.4,3.2,1.2,4.5L-477.7,830.4L-477.7,830.4z M-450.4,833.5c-4.2,0-7.6-3.4-7.6-7.6
			c0-4.2,3.4-7.6,7.6-7.6c4.2,0,7.6,3.4,7.6,7.6C-442.8,830.1-446.3,833.5-450.4,833.5z"/>
	</g>
</g>
<g>
	<g>
		<circle cx="-473.1" cy="812" r="1.8"/>
		<path d="M-473.1,817c-1,0-1.8,0.8-1.8,1.8s0.8,1.8,1.8,1.8s1.8-0.8,1.8-1.8C-471.3,817.7-472.2,817-473.1,817z"/>
		<rect x="-469.6" y="797.8" width="10.9" height="1.6"/>
		<rect x="-469.6" y="804.3" width="19.1" height="1.6"/>
		<path d="M-473.1,803.5c-1,0-1.9,0.8-1.9,1.9c0,1,0.8,1.9,1.9,1.9c1,0,1.9-0.8,1.9-1.9
			C-471.3,804.3-472.1,803.5-473.1,803.5z"/>
		<rect x="-469.6" y="811.4" width="19.1" height="1.6"/>
		<polygon points="-451.9,826.8 -454.4,824.3 -456.2,826 -451.9,830.3 -444.7,823.2 -446.5,821.4"/>
		<path d="M-473.1,796.7c-1,0-1.9,0.8-1.9,1.9c0,1,0.8,1.9,1.9,1.9c1,0,1.9-0.8,1.9-1.9
			C-471.3,797.5-472.1,796.7-473.1,796.7z"/>
		<path d="M-462,777.8c-17.7,0-32,14.3-32,32s14.3,32,32,32s32-14.3,32-32S-444.3,777.8-462,777.8z M-454.3,789.1
			l8.2,8.2h-8.2V789.1z M-477.7,830.4v-41.3h21.2v10.4h10.4v18.3c-1.3-0.7-2.8-1.1-4.3-1.1c-1.7,0-3.3,0.4-4.7,1.3h-14.5v1.6h12.4
			c-1.5,1.7-2.6,3.9-2.6,6.3c0,1.7,0.4,3.2,1.2,4.5L-477.7,830.4L-477.7,830.4z M-450.4,833.5c-4.2,0-7.6-3.4-7.6-7.6
			c0-4.2,3.4-7.6,7.6-7.6c4.2,0,7.6,3.4,7.6,7.6C-442.8,830.1-446.3,833.5-450.4,833.5z"/>
	</g>
	<g>
		<circle cx="-473.1" cy="812" r="1.8"/>
		<path d="M-473.1,817c-1,0-1.8,0.8-1.8,1.8s0.8,1.8,1.8,1.8s1.8-0.8,1.8-1.8C-471.3,817.7-472.2,817-473.1,817z"/>
		<rect x="-469.6" y="797.8" width="10.9" height="1.6"/>
		<rect x="-469.6" y="804.3" width="19.1" height="1.6"/>
		<path d="M-473.1,803.5c-1,0-1.9,0.8-1.9,1.9c0,1,0.8,1.9,1.9,1.9c1,0,1.9-0.8,1.9-1.9
			C-471.3,804.3-472.1,803.5-473.1,803.5z"/>
		<rect x="-469.6" y="811.4" width="19.1" height="1.6"/>
		<polygon points="-451.9,826.8 -454.4,824.3 -456.2,826 -451.9,830.3 -444.7,823.2 -446.5,821.4 		"/>
		<path d="M-473.1,796.7c-1,0-1.9,0.8-1.9,1.9c0,1,0.8,1.9,1.9,1.9c1,0,1.9-0.8,1.9-1.9
			C-471.3,797.5-472.1,796.7-473.1,796.7z"/>
		<path d="M-462,777.8c-17.7,0-32,14.3-32,32s14.3,32,32,32s32-14.3,32-32S-444.3,777.8-462,777.8z M-454.3,789.1
			l8.2,8.2h-8.2V789.1z M-477.7,830.4v-41.3h21.2v10.4h10.4v18.3c-1.3-0.7-2.8-1.1-4.3-1.1c-1.7,0-3.3,0.4-4.7,1.3h-14.5v1.6h12.4
			c-1.5,1.7-2.6,3.9-2.6,6.3c0,1.7,0.4,3.2,1.2,4.5L-477.7,830.4L-477.7,830.4z M-450.4,833.5c-4.2,0-7.6-3.4-7.6-7.6
			c0-4.2,3.4-7.6,7.6-7.6c4.2,0,7.6,3.4,7.6,7.6C-442.8,830.1-446.3,833.5-450.4,833.5z"/>
	</g>
</g>
</svg>
