<?xml version="1.0" encoding="utf-8"?>
<svg version="1.1" xmlns="http://www.w3.org/2000/svg" xmlns:xlink="http://www.w3.org/1999/xlink" x="0px" y="0px"
	 width="197.8px" height="100px" viewBox="0 0 197.8 100" style="enable-background:new 0 0 197.8 100;" xml:space="preserve">
<path d="M135.2,21.7c-0.7-0.3-2.2-0.4-4.3-0.4c-1.5,0-2.6,0.1-3.4,0.2c-0.7,0.1-1.4,0.4-1.9,0.7c-0.5,0.4-1,1-1.4,1.9
	c-0.4,0.9-0.7,2.2-1.1,3.9l-1.9,8.8c-0.3,1.7-0.5,3-0.5,3.9c0,1.3,0.4,2.1,1.1,2.4s2.2,0.4,4.3,0.4c1.5,0,2.6-0.1,3.4-0.2
	c0.7-0.1,1.4-0.4,1.9-0.7s1-1,1.3-1.9c0.4-0.9,0.7-2.2,1.1-3.9l1.9-8.8c0.4-1.7,0.6-3,0.6-3.9C136.3,22.8,135.9,22,135.2,21.7z"/>
<path d="M127.9,66.4c-0.8,0-1.4,0.1-1.8,0.4c-0.4,0.3-0.7,0.9-0.9,1.8h4.5c0.1-0.4,0.1-0.7,0.1-1c0-0.5-0.1-0.9-0.4-1
	C129.1,66.4,128.6,66.4,127.9,66.4z"/>
<path d="M51,61.9h-3.7l-1.2,5.6h3.7c0.6,0,1.1-0.1,1.4-0.1c0.3-0.1,0.5-0.2,0.7-0.4c0.2-0.2,0.4-0.5,0.5-0.8
	c0.1-0.4,0.3-0.9,0.4-1.6C53,64,53,63.6,53,63.3c0-0.5-0.1-0.8-0.4-1C52.3,62,51.8,61.9,51,61.9z"/>
<path d="M197.7,51.2c0.1,0,0.1,0,0.2,0v-31c0-11.2-9.1-20.2-20.2-20.2H20.2C9.1,0,0,9.1,0,20.2v59.6
	C0,90.9,9.1,100,20.2,100h115c0.6-1.9,2.5-3.3,4.6-3.3s4,1.4,4.6,3.3h20.1c0.6-1.9,2.5-3.3,4.6-3.3s4,1.4,4.6,3.3h3.9
	c5.2,0,10-2,13.5-5.2c-0.3,0.1-0.6,0.1-0.9,0.1c-2.7,0-4.9-2.2-4.9-4.9c0-2.7,2.2-4.9,4.9-4.9c2.6,0,4.8,2.1,4.9,4.7
	c1.1-1.9,1.9-4.1,2.3-6.3c-2.6-0.1-4.7-2.2-4.7-4.9c0-2.7,2.2-4.9,4.9-4.9c0.1,0,0.1,0,0.2,0V60.9c-0.1,0-0.1,0-0.2,0
	c-2.7,0-4.9-2.2-4.9-4.9C192.8,53.4,195,51.2,197.7,51.2z M183.1,30.3c2.7,0,4.9,2.2,4.9,4.9s-2.2,4.9-4.9,4.9
	c-2.7,0-4.9-2.2-4.9-4.9S180.4,30.3,183.1,30.3z M180.6,67.4c0,2.7-2.2,4.9-4.9,4.9c-2.7,0-4.9-2.2-4.9-4.9c0-2.7,2.2-4.9,4.9-4.9
	C178.4,62.6,180.6,64.7,180.6,67.4z M169.1,51.2c2.7,0,4.9,2.2,4.9,4.9c0,2.7-2.2,4.9-4.9,4.9s-4.9-2.2-4.9-4.9
	C164.3,53.4,166.4,51.2,169.1,51.2z M74.2,38.4l2.6-12.1c0.7-3.1,1.6-5.6,2.9-7.5c1.3-1.9,2.7-3.2,4.4-4.1c1.6-0.9,3.4-1.4,5.1-1.6
	c1.8-0.2,4-0.4,6.5-0.4c2.1,0,3.9,0.1,5.5,0.2s2.9,0.5,4.2,1.1c1.3,0.6,2.2,1.4,3,2.6c0.7,1.2,1.1,2.8,1.1,4.8c0,1.4-0.2,3-0.6,4.8
	l-2.6,12.1c-0.7,3.1-1.7,5.6-2.9,7.5c-1.3,1.9-2.7,3.2-4.3,4.1c-1.6,0.9-3.4,1.4-5.2,1.6c-1.8,0.2-4,0.4-6.5,0.4
	c-2.2,0-4-0.1-5.5-0.2c-1.5-0.2-2.9-0.5-4.1-1.1c-1.3-0.6-2.3-1.4-3-2.6c-0.7-1.2-1.1-2.8-1.1-4.8C73.7,41.8,73.8,40.2,74.2,38.4z
	 M60.9,13.1h12l-8.2,38.5H54.4l6.3-29.5l-11.9,9.1l-4.4-6.6L60.9,13.1z M26.7,51.6h-5.9L23,41.3h-9.9l1.2-5.9h9.9l2.1-9.8h5.9
	l-2.1,9.8h9.9l-1.2,5.9h-9.9L26.7,51.6z M55.8,70.5c-0.6,0.6-1.4,1-2.3,1.3c-0.9,0.3-2.1,0.4-3.5,0.4h-4.7l-1.1,5.1h-5.3l4.2-20
	h10.1c2,0,3.4,0.4,4.3,1.1c0.9,0.7,1.3,1.8,1.3,3.4c0,0.8-0.1,1.8-0.3,2.9c-0.3,1.5-0.7,2.7-1.1,3.6C56.9,69.2,56.4,70,55.8,70.5z
	 M71,77.3h-4.5l0.7-2.7h-0.2c-0.5,1-1.2,1.8-2,2.2c-0.8,0.4-1.7,0.7-2.8,0.7c-1.2,0-2.2-0.2-2.9-0.7c-0.7-0.5-1-1.3-1-2.4
	c0-0.4,0.1-0.9,0.2-1.4l2.1-9.6h4.6l-1.8,8.4c-0.1,0.5-0.2,0.9-0.2,1.1c0,0.4,0.1,0.7,0.3,0.9c0.2,0.2,0.6,0.3,1.1,0.3
	c0.7,0,1.3-0.2,1.9-0.5c0.6-0.4,1-0.9,1.1-1.5l1.8-8.6H74L71,77.3z M89.7,67.6l-2.1,9.7H83l1.8-8.6c0.1-0.3,0.1-0.6,0.1-0.8
	c0-0.4-0.1-0.7-0.3-0.9c-0.2-0.2-0.6-0.3-1.2-0.3c-1,0-1.7,0.2-2.1,0.7c-0.4,0.5-0.7,1.2-1,2.2l-1.6,7.7h-4.6l3-14h4.6l-0.6,2.6h0.2
	c0.5-1.1,1.2-1.8,1.9-2.2c0.7-0.4,1.7-0.6,2.9-0.6c2.5,0,3.7,1,3.7,3C89.9,66.6,89.8,67.1,89.7,67.6z M104.8,77.3h-5.4l-2.2-5.7
	h-0.8l-1.2,5.7h-4.6l4.2-20h4.6l-2.4,11.3h0.8l3.9-5.3h5.1l-5.4,6.7L104.8,77.3z M113.4,74.1c0.5,0,0.8-0.1,1-0.4
	c0.2-0.3,0.4-0.7,0.5-1.2l0.1-0.2l0.2-0.7h3.7l-0.3,1.3c-0.2,1-0.5,1.7-0.8,2.4c-0.3,0.6-0.7,1.1-1.2,1.4c-0.5,0.3-1,0.6-1.7,0.7
	c-0.7,0.1-1.5,0.2-2.5,0.2c-0.7,0-1.4,0-1.9-0.1c-0.5-0.1-1-0.2-1.4-0.4c-0.4-0.2-0.7-0.5-1-0.8c-0.2-0.4-0.3-0.8-0.3-1.4
	c0-0.4,0-0.8,0.1-1.2l1.5-6.9h-1.7l0.7-3.4h1.7l0.6-3h4.6l-0.6,3h5.3l-0.7,3.4h-5.3l-1.3,6.3c0,0.2-0.1,0.4-0.1,0.5
	C112.5,73.9,112.8,74.1,113.4,74.1z M134,70.3l-0.2,0.8h-9.1c-0.2,0.8-0.3,1.4-0.3,1.8c0,0.5,0.1,0.9,0.4,1.1
	c0.3,0.2,0.8,0.3,1.4,0.3c0.8,0,1.4-0.1,1.8-0.3c0.4-0.2,0.7-0.6,0.8-1.3h4.5c-0.2,1-0.5,1.8-1,2.5c-0.5,0.7-1,1.2-1.8,1.5
	c-0.6,0.3-1.3,0.5-2.2,0.7c-0.8,0.1-1.8,0.2-2.9,0.2c-2.1,0-3.6-0.3-4.5-0.9c-0.9-0.6-1.3-1.6-1.3-3.1c0-0.8,0.1-1.9,0.4-3.2
	c0.3-1.4,0.6-2.6,1-3.5c0.4-0.9,0.9-1.6,1.5-2.2c0.6-0.6,1.4-0.9,2.3-1.2c0.9-0.2,2.1-0.4,3.5-0.4c2.1,0,3.6,0.3,4.4,0.8
	c0.9,0.6,1.3,1.6,1.3,3.1C134.4,67.9,134.2,69,134,70.3z M143.3,38.4c-0.7,3.1-1.7,5.6-2.9,7.5c-1.3,1.9-2.7,3.2-4.3,4.1
	c-1.6,0.9-3.4,1.4-5.2,1.6c-1.8,0.2-4,0.4-6.5,0.4c-2.2,0-4-0.1-5.5-0.2c-1.5-0.2-2.9-0.5-4.1-1.1c-1.3-0.6-2.3-1.4-3-2.6
	c-0.7-1.2-1.1-2.8-1.1-4.8c0-1.4,0.2-3,0.6-4.8l2.6-12.1c0.7-3.1,1.6-5.6,2.9-7.5c1.3-1.9,2.7-3.2,4.4-4.1c1.6-0.9,3.4-1.4,5.1-1.6
	c1.8-0.2,4-0.4,6.5-0.4c2.1,0,3.9,0.1,5.5,0.2s2.9,0.5,4.2,1.1c1.3,0.6,2.2,1.4,3,2.6c0.7,1.2,1.1,2.8,1.1,4.8c0,1.4-0.2,3-0.6,4.8
	L143.3,38.4z M150.2,83.5c-2.7,0-4.9-2.2-4.9-4.9c0-2.7,2.2-4.9,4.9-4.9c2.7,0,4.9,2.2,4.9,4.9C155,81.3,152.8,83.5,150.2,83.5z
	 M161.8,94.8c-2.7,0-4.9-2.2-4.9-4.9c0-2.7,2.2-4.9,4.9-4.9c2.7,0,4.9,2.2,4.9,4.9C166.6,92.7,164.5,94.8,161.8,94.8z M164.3,78.6
	c0-2.7,2.2-4.9,4.9-4.9s4.9,2.2,4.9,4.9c0,2.7-2.2,4.9-4.9,4.9S164.3,81.3,164.3,78.6z M175.7,94.8c-2.7,0-4.9-2.2-4.9-4.9
	c0-2.7,2.2-4.9,4.9-4.9c2.7,0,4.9,2.2,4.9,4.9C180.6,92.7,178.4,94.8,175.7,94.8z M183.1,83.5c-2.7,0-4.9-2.2-4.9-4.9
	c0-2.7,2.2-4.9,4.9-4.9c2.7,0,4.9,2.2,4.9,4.9C188,81.3,185.8,83.5,183.1,83.5z M195.2,67.4c0,2.7-2.2,4.9-4.9,4.9
	c-2.7,0-4.9-2.2-4.9-4.9c0-2.7,2.2-4.9,4.9-4.9C193,62.6,195.2,64.7,195.2,67.4z"/>
<path d="M84.9,43c0.7,0.3,2.2,0.4,4.3,0.4c1.5,0,2.6-0.1,3.4-0.2c0.7-0.1,1.4-0.4,1.9-0.7s1-1,1.3-1.9
	c0.4-0.9,0.7-2.2,1.1-3.9l1.9-8.8c0.4-1.7,0.6-3,0.6-3.9c0-1.3-0.4-2-1.1-2.3c-0.7-0.3-2.2-0.4-4.3-0.4c-1.5,0-2.6,0.1-3.4,0.2
	c-0.7,0.1-1.4,0.4-1.9,0.7c-0.5,0.4-1,1-1.4,1.9c-0.4,0.9-0.7,2.2-1.1,3.9l-1.9,8.8c-0.3,1.7-0.5,3-0.5,3.9
	C83.8,41.9,84.1,42.7,84.9,43z"/>
</svg>
