<?xml version="1.0" encoding="utf-8"?>
<!-- Generator: Adobe Illustrator 19.1.0, SVG Export Plug-In . SVG Version: 6.00 Build 0)  -->
<svg version="1.1" id="Ebene_1" xmlns="http://www.w3.org/2000/svg" xmlns:xlink="http://www.w3.org/1999/xlink" x="0px" y="0px"
	 width="100px" height="100px" viewBox="0 0 100 100" style="enable-background:new 0 0 100 100;" xml:space="preserve">
<path d="M50,0C22.4,0,0,22.4,0,50s22.4,50,50,50s50-22.4,50-50S77.7,0,50,0z M22.2,74.7c-3.4,0-6.3-2.8-6.3-6.3
	c0-3.4,2.8-6.3,6.3-6.3c3.4,0,6.3,2.8,6.3,6.3C28.6,71.9,25.7,74.7,22.2,74.7z M22.2,56.2c-3.4,0-6.3-2.8-6.3-6.3
	c0-3.4,2.8-6.3,6.3-6.3c3.4,0,6.3,2.8,6.3,6.3C28.6,53.5,25.7,56.2,22.2,56.2z M22.2,37.9c-3.4,0-6.3-2.8-6.3-6.2
	c0-3.4,2.8-6.3,6.3-6.3c3.4,0,6.3,2.8,6.3,6.3S25.7,37.9,22.2,37.9z M84,72.6H36v-8.2h48V72.6z M84,54.2H36V46h48V54.2z M84,35.7H36
	v-8.3h48V35.7z"/>
</svg>
