<?xml version="1.0" encoding="utf-8"?>
<!-- Generator: Adobe Illustrator 19.2.1, SVG Export Plug-In . SVG Version: 6.00 Build 0)  -->
<svg
    xmlns="http://www.w3.org/2000/svg"
    version="1.1"
    x="0px"
    y="0px"
    width="65.1px"
    height="100px"
    viewBox="0 0 65.1 100"
    xml:space="preserve">
    <path d="M32.5,34.8C42.1,34.8,50,27,50,17.4S42.1,0,32.5,0S15.1,7.8,15.1,17.4S22.9,34.8,32.5,34.8z"/>
    <path d="M54.9,45c-1.1-0.3-2.5-0.6-3.9-0.8c0.4,3.1,0.9,8.4,0.9,15.3c2.7,0.4,4.7,2.7,4.7,5.5c0,3.1-2.5,5.6-5.6,5.6
        s-5.6-2.5-5.6-5.6c0-2.8,2.1-5.2,4.8-5.5c-0.1-4.5-0.3-10.8-1-15.5c-8.3-1.1-20.4-1.3-29.4-0.5c-0.4,2.4-1.1,8.3,1,13
        c8.1,0.5,14.6,7.9,14.6,17c0,2.4-0.5,4.7-1.3,6.8v0h0c0,0,0,0,0,0h-1.7c0,0,0,0,0,0h-1.6c-0.2,0.9-0.6,1.6-1.2,1.6
        c-0.7,0-1.2-1-1.2-2.3c0-1.3,0.6-2.3,1.2-2.3c0.5,0,1,0.7,1.2,1.6H33c0.5-1.6,0.8-3.4,0.8-5.2c0-8.5-6.2-15.4-14-15.4
        c-7.7,0-14,6.9-14,15.4c0,1.8,0.3,3.6,0.8,5.2H9c0.2-0.9,0.6-1.6,1.2-1.6c0.7,0,1.2,1,1.2,2.3c0,1.3-0.6,2.3-1.2,2.3
        c-0.5,0-1-0.7-1.2-1.6H7.3c0,0,0,0,0,0H5.6c0,0,0,0,0,0h0v0c-0.8-2.1-1.3-4.4-1.3-6.8c0-9.1,6.4-16.5,14.6-17
        c-0.4-0.9-2.1-5.4-0.7-12.9c-3.3,0.3-6.2,0.8-8,1.4C6.6,45.9,0,49.7,0,60.2C0,63.8,0,85,0,100h65c0.1-15,0.1-35.4,0.1-39.8
        C65.1,49.7,58.5,45.9,54.9,45z"/>
</svg>
