<?xml version="1.0" encoding="utf-8"?>
<!-- Generator: Adobe Illustrator 19.2.1, SVG Export Plug-In . SVG Version: 6.00 Build 0)  -->
<svg version="1.1" xmlns="http://www.w3.org/2000/svg" xmlns:xlink="http://www.w3.org/1999/xlink" x="0px" y="0px"
	 viewBox="0 0 131.8 100" style="enable-background:new 0 0 131.8 100;" xml:space="preserve">
<g>
	<path d="M64.5,68.9c0-3.9,0.7-7.6,1.9-11.1c-1.8-0.9-3.6-1.8-5.5-2.8c-3-2.1-4.5-3.1-4.8-9.8c6.5-4.1,8.6-13,8.6-23.3
		C64.7,7.7,58.7,0,48.1,0S31.3,7.7,31.3,21.9c0,10.3,2.3,19.2,8.8,23.3c-0.3,6.7-1.8,7.7-4.8,9.8C23.4,61.6,11,64.7,5.7,67.6
		C0.3,70.5,0,77.3,0,77.3S16.6,100,48.1,100c10.9,0,19.9-2.7,27.2-6.3C68.7,87.5,64.5,78.7,64.5,68.9z"/>
</g>
<g>
	<path fill="#fff" d="M102,93.6c-14.4,0-26-11.7-26-26s11.7-26,26-26s26,11.7,26,26S116.3,93.6,102,93.6z"/>
	<path d="M102,37.7c-16.5,0-29.9,13.4-29.9,29.9c0,16.5,13.4,29.9,29.9,29.9c16.5,0,29.9-13.4,29.9-29.9
		C131.8,51.1,118.4,37.7,102,37.7z M102,89.7c-12.3,0-22.2-10-22.2-22.2c0-12.3,10-22.2,22.2-22.2c12.3,0,22.2,10,22.2,22.2
		C124.2,79.8,114.2,89.7,102,89.7z"/>
</g>
<path fill="#7AB42A" d="M113.3,54.5l-16,16L89.8,63l-5.3,5.3l12.8,12.8l21.3-21.3L113.3,54.5z"/>
</svg>
