<?xml version="1.0" encoding="utf-8"?>
<!-- Generator: Adobe Illustrator 16.0.3, SVG Export Plug-In . SVG Version: 6.00 Build 0)  -->
<!DOCTYPE svg PUBLIC "-//W3C//DTD SVG 1.1//EN" "http://www.w3.org/Graphics/SVG/1.1/DTD/svg11.dtd">
<svg version="1.1" id="Ebene_1" xmlns="http://www.w3.org/2000/svg" xmlns:xlink="http://www.w3.org/1999/xlink" x="0px" y="0px"
	 width="31px" height="20px" viewBox="0 0 31 20" enable-background="new 0 0 31 20" xml:space="preserve">
<g>
	<path d="M29.161,3.609c-0.695,0-1.257,0.563-1.257,1.257v5.03H5.988V1.273c0-0.694-0.564-1.257-1.258-1.257
		c-0.695,0-1.258,0.563-1.258,1.257v12.216c0,0.694,0.563,1.257,1.258,1.257c0.693,0,1.258-0.563,1.258-1.257v-1.078h21.916v1.078
		c0,0.694,0.562,1.257,1.257,1.257s1.26-0.563,1.26-1.257V4.866C30.421,4.173,29.856,3.609,29.161,3.609"/>
	<path d="M26.825,4.739c-1.795-1.477-12.934-1.176-14.011,0v3.719h14.011V4.739z"/>
	<path d="M9.508,8.358c1.214,0,2.2-0.983,2.2-2.199c0-1.215-0.986-2.199-2.2-2.199c-1.215,0-2.199,0.984-2.199,2.199
		C7.309,7.375,8.293,8.358,9.508,8.358"/>
</g>
<path fill="#FFFFFF" stroke="#FFFFFF" stroke-width="0.6737" stroke-miterlimit="10" d="M26.938,7.188
	c-0.857,0-1.586,0.563-1.836,1.339l-0.069-0.057c-1.219-1.002-5.018-1.151-7.174-1.151c-1.11,0-6.702,0.06-7.763,1.216L9.92,8.729
	v0.263v0.271C9.475,8.249,8.463,7.538,7.287,7.538c-1.457,0-2.66,1.09-2.846,2.498v-4.51c0-1.065-0.867-1.932-1.933-1.932
	c-1.063,0-1.931,0.866-1.931,1.932v12.215c0,1.064,0.867,1.931,1.931,1.931c1.065,0,1.933-0.866,1.933-1.931v-0.404H25.01v0.404
	c0,1.064,0.865,1.931,1.929,1.931c1.066,0,1.935-0.866,1.935-1.931V9.118C28.873,8.054,28.005,7.188,26.938,7.188z"/>
<g>
	<g>
		<path d="M26.938,7.862c-0.692,0-1.257,0.563-1.257,1.256v5.03H3.768V5.526c0-0.695-0.564-1.258-1.259-1.258
			S1.252,4.831,1.252,5.526v12.215c0,0.694,0.563,1.257,1.257,1.257s1.259-0.563,1.259-1.257v-1.077h21.914v1.077
			c0,0.694,0.564,1.257,1.257,1.257c0.695,0,1.26-0.563,1.26-1.257V9.118C28.198,8.425,27.634,7.862,26.938,7.862z"/>
	</g>
	<g>
		<path d="M24.605,8.991c-1.795-1.477-12.936-1.176-14.012,0v3.719h14.012V8.991z"/>
	</g>
	<g>
		<circle cx="7.287" cy="10.411" r="2.199"/>
	</g>
</g>
</svg>
