<?xml version="1.0" encoding="utf-8"?>
<!-- Generator: Adobe Illustrator 19.1.0, SVG Export Plug-In . SVG Version: 6.00 Build 0)  -->
<svg version="1.1" id="Ebene_1" xmlns="http://www.w3.org/2000/svg" xmlns:xlink="http://www.w3.org/1999/xlink" x="0px" y="0px"
	 width="100px" height="100px" viewBox="0 0 100 100" style="enable-background:new 0 0 100 100;" xml:space="preserve">
<path d="M50,0C22.4,0,0,22.4,0,50s22.4,50,50,50s50-22.4,50-50S77.6,0,50,0z M46.5,81.9c-8.5,0-15.5-2-19.4-4.4
	l3.2-12.8C33,66,39.1,68.4,45,68.4c6.1,0,10.1-2.2,10.1-6.5c0-5-5.2-7.4-10.8-7.4h-6.9v-12h6.5c4.3,0,9.7-1.4,9.7-5.7
	c0-3.1-2.9-5.3-8.3-5.3c-5.2,0-10.7,2.2-13.2,3.5l-3.2-12.3c3.9-2.4,11.8-4.7,20.3-4.7c13.7,0,21.6,6.8,21.6,15.7
	c0,6.6-3.5,11.6-11.5,14.3v0.2c8,1.2,13.4,6.7,13.4,14.6C72.8,74.2,62.5,81.9,46.5,81.9z"/>
</svg>