<?xml version="1.0" encoding="UTF-8" standalone="no"?>
<!-- Generator: Adobe Illustrator 19.2.1, SVG Export Plug-In . SVG Version: 6.00 Build 0)  -->
<svg
    xmlns="http://www.w3.org/2000/svg"
    version="1.1"
    x="0px"
    y="0px"
    width="86.400002"
    height="92"
    viewBox="0 0 86.400002 92.000002"
    xml:space="preserve">
    <polygon points="46.9,6.7 39.6,6.7 39.6,14 32.3,14 32.3,21.4 39.6,21.4 39.6,28.7 46.9,28.7 46.9,21.4 54.3,21.4
        54.3,14 46.9,14 " />
    <path d="m 86.4,92 c 0,-6.3 -0.1,-59.4 -0.1,-59.4 H 65.7 V 1.6 C 65.7,0.7 65,0 64.2,0 H 22.1 c -0.9,0 -1.5,0.7
        -1.5,1.6 v 31 H 0 V 92 H 31.6 V 64 h 23 V 92 Z M 81.8,77.3 H 62.2 V 64 h 19.6 z m 0,-32.5 V 58.1 H 62.2 V 44.8 Z
        M 24,77.3 v 0 H 4.4 V 64 H 24 Z m 0,-19.2 v 0 H 4.4 V 44.8 H 24 Z M 23.7,32.6 V 3.1 h 39 v 29.5 z m 7.9,25.5 V
        44.8 h 23 v 13.3 z" />
</svg>