<?xml version="1.0" encoding="utf-8"?>
<!-- Generator: Adobe Illustrator 19.1.0, SVG Export Plug-In . SVG Version: 6.00 Build 0)  -->
<svg version="1.1" id="Ebene_1" xmlns="http://www.w3.org/2000/svg" xmlns:xlink="http://www.w3.org/1999/xlink" x="0px" y="0px"
	 width="78px" height="100px" viewBox="0 0 78 100" style="enable-background:new 0 0 78 100;" xml:space="preserve">
<path d="M68.7,24.8C65.8,10.7,54.5,0,39.4,0h-0.7C23.7,0,12,10.6,9.1,24.8C4.6,24.5,0,27.8,0,33v59c0,4.1,2.9,8,8.4,8
	h60.2c5.7,0,9.4-3.4,9.4-8V33.7C78.1,28.4,74.9,25,68.7,24.8z M45.1,59.1V83h-12V59.1c-2-1.7-3.9-4.6-3.9-7.7
	c0-5.3,4.5-9.7,10.1-9.7c5.5,0,10,4.4,10,9.7C49,54.7,48.1,57.4,45.1,59.1z M18.1,24c2-9,10.5-16,20.6-16c0.2,0,0.3,0,0.5,0
	c10,0,18.3,7,20.1,16H18.1z"/>
</svg>
