<?xml version="1.0" encoding="utf-8"?>
<svg version="1.1" xmlns="http://www.w3.org/2000/svg" xmlns:xlink="http://www.w3.org/1999/xlink" x="0px" y="0px"
	 viewBox="0 0 111 100" style="enable-background:new 0 0 111 100;" xml:space="preserve">
<path d="M81.2,0C70.4,0,60.9,6,55.5,14.9C50.1,6,40.9,0,29.9,0C13.4,0,0,14,0,31.3S14.9,62.1,55.5,100
	C96.1,62.1,111,48.7,111,31.3S97.9,0,81.2,0z M55.5,91.6C19.7,57.9,6,45.4,6,31.3S16.7,6,29.9,6c8.4,0,16.1,4.5,20.3,12.2
	c1.2,1.8,3,3,5.1,3s4.2-1.2,5.1-3C65.4,10.4,72.8,6,81.2,6c13.1,0,23.9,11.3,23.9,25.4S91.6,58.2,55.5,91.6z"/>
</svg>
