<?xml version="1.0" encoding="utf-8"?>
<!-- Generator: Adobe Illustrator 19.1.0, SVG Export Plug-In . SVG Version: 6.00 Build 0)  -->
<svg version="1.1" id="Ebene_1" xmlns="http://www.w3.org/2000/svg" xmlns:xlink="http://www.w3.org/1999/xlink" x="0px" y="0px"
	 width="100.2px" height="100px" viewBox="0 0 100.2 100" style="enable-background:new 0 0 100.2 100;" xml:space="preserve">
<path d="M51.1,45.2V26.3h-4v19.2c-1,0.8-2.1,2.3-2.1,4c0,2.6,2.2,4.6,4.8,4.6c1.9,0,3.5-0.8,4.3-2.8h17v-4H53.9
	C53.4,46.3,52.1,45.6,51.1,45.2z"/>
<path d="M99.2,60.5c0.7-3.4,1-7.1,1-10.8c0-1.6-0.1-3.2-0.2-4.8C97.4,19.7,76.1,0,50.1,0C22.4,0,0,22.4,0,50.1
	c0,23.2,15.7,42.7,37.1,48.4c4.1,1,8.3,1.5,12.8,1.5c6.2,0,12-1,17.3-2.7C83.3,91.4,95.6,77.6,99.2,60.5z M51.1,90.3v-10h-4v9.9
	c-21-1.3-36.7-17.9-37.6-38.9h8.6v-4H9.6c1.4-20,17.5-36.5,37.5-37.8v8.8h4V9.5c21,0.9,37.8,16.8,39.2,37.8H80.1v4h10.2
	C89.4,72.3,73.1,89.3,51.1,90.3z"/>
</svg>
