<?xml version="1.0" encoding="utf-8"?>
<!-- Generator: Adobe Illustrator 21.0.0, SVG Export Plug-In . SVG Version: 6.00 Build 0)  -->
<svg version="1.1" id="Ebene_1" xmlns="http://www.w3.org/2000/svg" xmlns:xlink="http://www.w3.org/1999/xlink" x="0px" y="0px"
	 viewBox="0 0 116 100" style="enable-background:new 0 0 116 100;" xml:space="preserve">
<rect x="74.2" y="43.7" width="6.3" height="17.8"/>
<ellipse cx="77.5" cy="66.7" rx="3.6" ry="3.6"/>
<path d="M106.2,30.4H76.9V9.9C77,4.4,72.6,0,67.2,0H9.7C4.4,0,0,4.4,0,9.9V43c0,5.1,3.8,9.2,8.8,9.8L3.2,69.9l29.5-16.9
	H39v20.4c0,5.5,4.4,9.8,9.7,9.8h34.5l29.5,16.9l-5.5-16.8c4.9-0.6,8.8-4.7,8.8-9.8V40.3C116,34.8,111.6,30.4,106.2,30.4z M36.7,38.6
	c-2,0-3.4-1.5-3.4-3.5s1.4-3.5,3.4-3.5c2.1,0,3.4,1.4,3.4,3.5C40.1,37.1,38.7,38.6,36.7,38.6z M41.1,24.3c-1.4,1.5-2,3.1-2,4.7v0.7
	h-5v-1c-0.1-2,0.5-4,2.3-5.9c1.2-1.4,2.2-2.6,2.2-4c0-1.3-0.9-2.2-2.7-2.3c-1.2,0-2.8,0.4-3.7,1.1l-1.3-4.2c1.4-0.8,3.6-1.5,6.3-1.5
	c5,0,7.2,2.9,7.2,5.9C44.4,20.8,42.6,22.8,41.1,24.3z M107.1,73.3c0,0.7-0.5,1-1,1l-9.6,0.1l0.9,6.9l-11.8-6.8H48.7
	c-0.5,0-1-0.4-1-1V52.9V40.3v-0.1c0-0.1,0-0.3,0.2-0.7c0.1-0.1,0.4-0.3,0.8-0.3h28.2h29.2c0.5,0,1,0.4,1,1V73.3z"/>
</svg>
