<?xml version="1.0" encoding="utf-8"?>
<!-- Generator: Adobe Illustrator 19.2.1, SVG Export Plug-In . SVG Version: 6.00 Build 0)  -->
<svg version="1.1" xmlns="http://www.w3.org/2000/svg" xmlns:xlink="http://www.w3.org/1999/xlink" x="0px" y="0px"
	 width="125.2px" height="100px" viewBox="0 0 125.2 100" style="enable-background:new 0 0 125.2 100;" xml:space="preserve">
<rect x="84.5" y="50.6" fill="#fff" width="32.8" height="35.8"/>
<path d="M64.7,68.9c0-3.9,0.7-7.6,1.9-11.1c-1.8-0.9-3.7-1.8-5.5-2.8c-3-2.1-4.5-3.1-4.8-9.8c6.5-4.1,8.6-13,8.6-23.3
	C64.9,7.6,58.9,0,48.2,0C37.7,0,31.4,7.7,31.4,21.8c0,10.3,2.3,19.2,8.8,23.3c-0.3,6.7-1.8,7.7-4.8,9.8C23.5,61.7,11,64.7,5.7,67.6
	C0.3,70.5,0,77.3,0,77.3S16.6,100,48.1,100c10.9,0,19.9-2.7,27.2-6.3C68.8,87.5,64.7,78.7,64.7,68.9z"/>
<path d="M98.7,42.2c-14.7,0-26.5,11.9-26.5,26.5c0,14.7,11.9,26.5,26.5,26.5c14.7,0,26.5-11.9,26.5-26.5
	S113.4,42.2,98.7,42.2z M98.9,85.9V75.6h-13v-13h13V52l17.5,17L98.9,85.9z"/>
</svg>