<?xml version="1.0" encoding="utf-8"?>
<svg version="1.1" id="Ebene_1" xmlns="http://www.w3.org/2000/svg" xmlns:xlink="http://www.w3.org/1999/xlink" x="0px" y="0px"
	 viewBox="-241 370.9 77.1 100.1" style="enable-background:new -241 370.9 77.1 100.1;" xml:space="preserve">
<path d="M-164.1,391.8c-0.5-4.8-2.9-9.2-5.3-13.4c-4.5-7.9-14.8-9.9-21.5-4.5c-8.4,6.8-9.1,6.8-18.9,1.1
	c-12.7-7.4-23.3-3.5-28.8,10.4c-5.3,13.3-1.1,24.6,6.6,35.4c1.5,2.1,3.5,3.9,3.1,7.1c-1.1,10.6,2.4,20.4,5.5,30.3
	c1.2,3.6,2.8,7.1,5.5,10c2,2.1,4.2,3.6,7.2,2.3c2.6-1.2,2.9-3.8,2.7-6.4c-0.3-4.5-0.7-9-1.1-13.5c0.2-5.2-0.2-10.3,1.5-15.4
	c1.4-4.1,3.4-7.6,8.1-7.9c5-0.3,7.8,3,9.6,7.1c2.7,6.2,2.4,12.7,2.1,19.2c-0.2,4.2-2,10.3,3.7,11.5c5.4,1.1,6.9-4.8,8.7-8.7
	c0.8-1.7,5.5-20,8.1-35.5C-164.7,404.9-163.3,399.1-164.1,391.8z"/>
</svg>
