<?xml version="1.0" encoding="UTF-8"?>
<!-- Generator: Adobe Illustrator 19.1.0, SVG Export Plug-In . SVG Version: 6.00 Build 0)  -->
<svg version="1.1" id="Ebene_1" xmlns="http://www.w3.org/2000/svg" xmlns:xlink="http://www.w3.org/1999/xlink" x="0px" y="0px" width="99px" height="100px" viewBox="0 0 99 100" style="enable-background:new 0 0 99 100;" xml:space="preserve">
<path d="M99,20H83V0H15v20H0v59h15v21h68V79h16V20z M19,4h60v30H19V4z M79,96H19V63h60V96z M89.9,36.3  c-2.6,0-4.8-2.1-4.8-4.8c0-2.6,2.1-4.8,4.8-4.8c2.6,0,4.8,2.1,4.8,4.8C94.7,34.2,92.5,36.3,89.9,36.3z"/>
<rect x="25" y="84" class="st0" width="49" height="4"/>
<rect x="25" y="72" class="st0" width="49" height="4"/>
</svg>