<?xml version="1.0" encoding="utf-8"?>
<svg version="1.1" id="Ebene_1" xmlns="http://www.w3.org/2000/svg" xmlns:xlink="http://www.w3.org/1999/xlink" x="0px" y="0px"
	 viewBox="0 0 116.2 75.9" style="enable-background:new 0 0 116.2 75.9;" xml:space="preserve">
<g>
	<g>
		<g>
			<path d="M0,66.1v2.8c0,3.9,3.2,7.1,7.1,7.1h102c3.9,0,7.1-3.2,7.1-7.1v-2.8H76.1c-2.6,0-4.5,3.2-4.5,3.2H44.1c0,0-1.9-3.2-5.3-3.2H0z"/>
		</g>
		<g>
			<path d="M97.8,0H18.3c-3.9,0-7.1,3.2-7.1,7.1v56.1h93.7V7.1C104.9,3.2,101.7,0,97.8,0z M96.3,56.6H19.8V7h76.5V56.6z"/>
		</g>
	</g>
	<g>
		<line x1="39.6" y1="21.6" x2="57.6" y2="21.6"/>
		<path fill="#DDDDDD" d="M57.6,24.1h-18c-1.4,0-2.5-1.1-2.5-2.5s1.1-2.5,2.5-2.5h18c1.4,0,2.5,1.1,2.5,2.5S59,24.1,57.6,24.1z"/>
	</g>
	<g>
		<line x1="39.6" y1="34.6" x2="57.6" y2="34.6"/>
		<path d="M57.6,37.1h-18c-1.4,0-2.5-1.1-2.5-2.5s1.1-2.5,2.5-2.5h18c1.4,0,2.5,1.1,2.5,2.5S59,37.1,57.6,37.1z"/>
	</g>
	<g>
		<line x1="39.6" y1="45.6" x2="57.6" y2="45.6"/>
		<path fill="#DDDDDD" d="M57.6,48.1h-18c-1.4,0-2.5-1.1-2.5-2.5s1.1-2.5,2.5-2.5h18c1.4,0,2.5,1.1,2.5,2.5S59,48.1,57.6,48.1z"/>
	</g>
	<g>
		<path d="M78.1,25.5l-7.2,7.2l-3.4-3.4l-2.4,2.4l5.8,5.8l9.6-9.6L78.1,25.5z"/>
	</g>
</g>
</svg>
