<?xml version="1.0" encoding="utf-8"?>
<svg version="1.1" id="Ebene_1" xmlns="http://www.w3.org/2000/svg" xmlns:xlink="http://www.w3.org/1999/xlink" x="0px" y="0px"
	 width="136.9px" height="100px" viewBox="0 0 136.9 100" style="enable-background:new 0 0 136.9 100;" xml:space="preserve">
	<path fill="#005ea8" d="M53.2,46.1h-9.6l-0.9,4c-2.1-3.3-5.2-4.9-9.5-4.9c-6,0-11,2.8-14.8,8.5c-3.2,4.7-4.8,9.9-4.8,15.5
	c0,4.6,1.3,8.3,4,11c2.6,2.8,6,4.1,10,4.1c3.7,0,7-1.4,9.8-4.1c0.3,1.4,1,2.4,2,3.1c1,0.7,2.5,1.1,4.5,1.1c4.2,0,7.4-0.9,10.9-2.7
	c0.9,0,82.1,0,82.1,0V0H18.8v0v34.4c-0.3,0.1-0.6,0.3-0.8,0.4C12.4,37.7,8,42.1,4.8,48C1.6,53.8,0,60.1,0,66.9
	c0,6.2,1.4,11.9,4.2,17.1c2.8,5.2,7.1,9.2,12.9,11.9c5.8,2.7,12.7,4,20.6,4c8.2,0,15.2-1.6,20.9-4.8c5-2.8,8.7-6.6,11.1-11.5h-7.7
	c-2.5,3.2-5.9,5.6-10,7.2c-4.2,1.6-9.1,2.4-14.9,2.4c-6,0-11.3-1-15.9-2.9c-4.6-1.9-8.3-5-10.8-9.1c-2.6-4.2-3.9-8.8-3.9-13.9
	c0-5.2,1.2-10.3,3.5-15.1c2.3-4.8,5.7-8.6,10.3-11.3c4.5-2.7,10.1-4,16.6-4c7.7,0,13.7,2,18,6c4.3,4,6.4,9,6.4,14.9
	c0,3.3-0.8,6.5-2.3,9.6c-1.5,3.1-3.5,5.6-6,7.4c-1.8,1.4-3.3,2.1-4.5,2.1c-0.4,0-0.7-0.1-1-0.5c-0.3-0.3-0.4-0.8-0.4-1.4
	c0-0.5,0.2-1.5,0.5-3.2L53.2,46.1z M39.4,68c-0.9,2.8-2,5-3.3,6.4c-0.9,1-1.8,1.8-2.7,2.3c-1.2,0.7-2.5,1-3.9,1
	c-1.8,0-3.4-0.7-4.6-2.2c-1.2-1.4-1.9-3.7-1.9-6.8c0-2.3,0.4-4.9,1.3-7.9c0.9-3,2.2-5.3,4-6.9c1.8-1.6,3.7-2.4,5.8-2.4
	c1.9,0,3.5,0.7,4.8,2.2c1.3,1.5,1.9,3.6,1.9,6.3C40.8,62.6,40.3,65.2,39.4,68z M132.2,73.4L97,35.3l35.3-28.2V73.4z M127.9,4.7
	l-50,40l-50.1-40H127.9z M53.3,33.9c-4.7-2.4-10.1-3.5-16.2-3.5c-4.9,0-9.4,0.7-13.6,2.1V7.3L59,35.6l-1.1,1.2
	C56.5,35.7,55,34.8,53.3,33.9z M64.2,44c-0.8-1.5-1.8-2.8-2.9-4l1.4-1.5l15.2,12.1l15.5-12.3L129.2,77H60.7c0.2-0.2,0.6-0.7,1.6-2
	c3.8-5,5.7-10.5,5.7-16.7C67.9,53.1,66.7,48.4,64.2,44z"/>
</svg>
