<?xml version="1.0" encoding="utf-8"?>
<!-- Generator: Adobe Illustrator 19.1.0, SVG Export Plug-In . SVG Version: 6.00 Build 0)  -->
<!DOCTYPE svg PUBLIC "-//W3C//DTD SVG 1.1//EN" "http://www.w3.org/Graphics/SVG/1.1/DTD/svg11.dtd">
<svg version="1.1" id="Ebene_1" xmlns="http://www.w3.org/2000/svg" xmlns:xlink="http://www.w3.org/1999/xlink" x="0px" y="0px"
	 viewBox="-265 388.9 64 64" style="enable-background:new -265 388.9 64 64;" xml:space="preserve">
<g>
	<path d="M-367.5,1014.3c-17.7,0-32,14.3-32,32c0,17.7,14.3,32,32,32s32-14.3,32-32
		C-335.5,1028.6-349.8,1014.3-367.5,1014.3z M-367.5,1021.8c4.7,0,8.6,3.8,8.6,8.6c0,4.7-3.8,8.6-8.6,8.6s-8.6-3.8-8.6-8.6
		C-376.1,1025.7-372.2,1021.8-367.5,1021.8z M-351.2,1058.4v9.9h-16.3h-16.3v-9.9v-9.5c0-1.9,0.6-3.5,1.9-4.7
		c1.2-1.2,2.8-1.9,4.7-1.9c0,0,1.7-0.4,9.9-0.4c8,0,9.9,0.4,9.9,0.4c1.9,0.1,3.4,0.8,4.6,1.9c1.2,1.2,1.9,2.9,1.9,4.7L-351.2,1058.4
		L-351.2,1058.4z"/>
</g>
<g>
	<path d="M-233,388.9c-17.7,0-32,14.3-32,32s14.3,32,32,32s32-14.3,32-32S-215.3,388.9-233,388.9z M-233,396.4
		c4.7,0,8.6,3.8,8.6,8.6c0,4.7-3.8,8.6-8.6,8.6s-8.6-3.8-8.6-8.6C-241.6,400.3-237.7,396.4-233,396.4z M-216.7,433v9.9H-233h-16.3
		V433v-9.5c0-1.9,0.6-3.5,1.9-4.7c1.2-1.2,2.8-1.9,4.7-1.9c0,0,1.7-0.4,9.9-0.4c8,0,9.9,0.4,9.9,0.4c1.9,0.1,3.4,0.8,4.6,1.9
		c1.2,1.2,1.9,2.9,1.9,4.7L-216.7,433L-216.7,433z"/>
</g>
</svg>
