<?xml version="1.0" encoding="UTF-8" standalone="no"?>
<!-- Generator: Adobe Illustrator 19.2.1, SVG Export Plug-In . SVG Version: 6.00 Build 0)  -->
<svg
    xmlns="http://www.w3.org/2000/svg"
    version="1.1"
    x="0px"
    y="0px"
    width="78.900719"
    height="86.699997"
    viewBox="0 0 78.900719 86.699997"
    xml:space="preserve">
    <path d="m 9.8,41 c 3.9,-2.3 8.5,-3.7 13.4,-3.7 2.2,0 4.4,0.3 6.4,0.8 0,-1 0.1,-2 0.3,-3 -0.9,0.2 -1.9,0.4 -3,0.4 -3.6,0
        -6.8,-1.4 -8.9,-4.1 -1,-1.3 -1.7,-2.8 -2,-4.7 h -2.4 v -2.6 h 2 c 0,-0.2 0,-0.4 0,-0.6 0,-0.4 0,-0.7 0,-1.1 h -2 V
        19.8 H 16 c 0.5,-2 1.3,-3.6 2.5,-5 2.1,-2.3 5,-3.7 8.4,-3.7 2.2,0 4.1,0.5 5.4,1.1 l -0.9,4 c -0.9,-0.4 -2.4,-0.9
        -4,-0.9 -1.8,0 -3.3,0.6 -4.5,2 -0.5,0.6 -0.9,1.4 -1.2,2.4 h 9.1 v 2.6 h -9.6 c 0,0.3 0,0.7 0,1.1 0,0.2 0,0.4 0,0.6
        h 9.6 v 2.6 h -9.1 c 0.2,1.1 0.7,1.9 1.2,2.6 1.2,1.3 2.9,1.9 4.7,1.9 1.3,0 2.7,-0.4 3.6,-0.7 2.5,-7.2 8.1,-13
        15.3,-15.8 C 42.9,6 34.5,0 24.8,0 12,0 1.6,10.4 1.6,23.2 1.6,30.4 4.8,36.7 9.8,41 Z" />
    <path d="m 55.7,15.7 c -12.8,0 -23.2,10.4 -23.2,23.2 0,0 0,0.1 0,0.1 9.2,3.5 15.9,12 16.7,22.2 2.1,0.6 4.2,0.9 6.5,0.9
        12.8,0 23.2,-10.4 23.2,-23.2 C 79,26.1 68.6,15.7 55.7,15.7 Z m 2.1,35.4 c -3.6,0 -6.8,-1.4 -8.9,-4.1 -1,-1.3
        -1.7,-2.8 -2,-4.7 h -2.4 v -2.6 h 2 c 0,-0.2 0,-0.4 0,-0.6 0,-0.4 0,-0.7 0,-1.1 h -2 v -2.6 h 2.4 c 0.5,-2 1.3,-3.6
        2.5,-5 2.1,-2.3 5,-3.7 8.4,-3.7 2.2,0 4.1,0.5 5.4,1.1 l -0.9,4 c -0.9,-0.4 -2.4,-0.9 -4,-0.9 -1.8,0 -3.3,0.6 -4.5,2
        -0.5,0.6 -0.9,1.4 -1.2,2.4 h 9.1 v 2.6 h -9.6 c 0,0.3 0,0.7 0,1.1 0,0.2 0,0.4 0,0.6 h 9.6 v 2.6 h -9.1 c 0.2,1.1
        0.7,1.9 1.2,2.6 1.2,1.3 2.9,1.9 4.7,1.9 1.7,0 3.4,-0.6 4.1,-0.9 l 0.9,4 c -1.3,0.6 -3.4,1.3 -5.7,1.3 z" />
    <path d="M 23.2,40.3 C 10.4,40.3 0,50.7 0,63.5 0,76.3 10.4,86.7 23.2,86.7 36,86.7 46.4,76.3 46.4,63.5 46.4,50.7 36,40.3
        23.2,40.3 Z m 2.1,35.4 c -3.6,0 -6.8,-1.4 -8.9,-4.1 -1,-1.3 -1.7,-2.8 -2,-4.7 H 12 v -2.6 h 2 c 0,-0.2 0,-0.4 0,-0.6
        0,-0.4 0,-0.7 0,-1.1 H 12 V 60 h 2.4 c 0.5,-2 1.3,-3.6 2.5,-5 2.1,-2.3 5,-3.7 8.4,-3.7 2.2,0 4.1,0.5 5.4,1.1 l
        -0.9,4 c -0.9,-0.4 -2.4,-0.9 -4,-0.9 -1.8,0 -3.3,0.6 -4.5,2 -0.5,0.6 -0.9,1.4 -1.2,2.4 h 9.1 v 2.6 h -9.6 c 0,0.3
        0,0.7 0,1.1 0,0.2 0,0.4 0,0.6 h 9.6 v 2.6 h -9.1 c 0.2,1.1 0.7,1.9 1.2,2.6 1.2,1.3 2.9,1.9 4.7,1.9 1.7,0 3.4,-0.6
        4.1,-0.9 l 0.9,4 c -1.3,0.6 -3.4,1.3 -5.7,1.3 z" />
</svg>