<?xml version="1.0" encoding="utf-8"?>
<!-- Generator: Adobe Illustrator 16.0.3, SVG Export Plug-In . SVG Version: 6.00 Build 0)  -->
<!DOCTYPE svg PUBLIC "-//W3C//DTD SVG 1.1//EN" "http://www.w3.org/Graphics/SVG/1.1/DTD/svg11.dtd">
<svg version="1.1" id="Ebene_1" xmlns="http://www.w3.org/2000/svg" xmlns:xlink="http://www.w3.org/1999/xlink" x="0px" y="0px"
	 width="31px" height="21.875px" viewBox="0 0 31 21.875" enable-background="new 0 0 31 21.875" xml:space="preserve">
<g>
	<path d="M29.412,3.925c-0.657,0-1.19,0.533-1.19,1.19v4.768H7.453V1.711c0-0.657-0.534-1.19-1.192-1.19
		c-0.659,0-1.191,0.533-1.191,1.19v11.577c0,0.657,0.532,1.19,1.191,1.19c0.658,0,1.192-0.533,1.192-1.19v-1.021h20.769v1.021
		c0,0.657,0.533,1.19,1.19,1.19c0.658,0,1.193-0.533,1.193-1.19V5.115C30.605,4.458,30.07,3.925,29.412,3.925"/>
	<path d="M27.199,4.995c-1.701-1.398-12.256-1.113-13.277,0V8.52h13.277V4.995z"/>
	<path d="M10.789,8.427c1.15,0,2.084-0.934,2.084-2.085s-0.934-2.085-2.084-2.085c-1.152,0-2.086,0.934-2.086,2.085
		S9.637,8.427,10.789,8.427"/>
</g>
<path fill="#FFFFFF" stroke="#FFFFFF" stroke-width="0.6384" stroke-miterlimit="10" d="M27.21,6.996
	c-0.813,0-1.505,0.534-1.742,1.271l-0.065-0.054c-1.154-0.949-4.754-1.091-6.797-1.091c-1.054,0-6.352,0.056-7.357,1.152
	L11.08,8.458v0.248v0.257c-0.42-0.959-1.379-1.634-2.494-1.634c-1.381,0-2.521,1.033-2.697,2.366V5.422c0-1.009-0.82-1.83-1.83-1.83
	c-1.009,0-1.83,0.821-1.83,1.83v11.576c0,1.009,0.821,1.83,1.83,1.83c1.01,0,1.83-0.821,1.83-1.83v-0.384H25.38v0.384
	c0,1.009,0.82,1.83,1.83,1.83s1.831-0.821,1.831-1.83V8.826C29.041,7.818,28.22,6.996,27.21,6.996z"/>
<g>
	<g>
		<path d="M27.21,7.635c-0.658,0-1.191,0.534-1.191,1.191v4.768H5.25V5.422c0-0.658-0.533-1.191-1.191-1.191
			c-0.659,0-1.191,0.533-1.191,1.191v11.576c0,0.658,0.532,1.191,1.191,1.191c0.658,0,1.191-0.533,1.191-1.191v-1.022h20.769v1.022
			c0,0.658,0.533,1.191,1.191,1.191c0.659,0,1.192-0.533,1.192-1.191V8.826C28.402,8.169,27.869,7.635,27.21,7.635z"/>
	</g>
	<g>
		<path d="M24.997,8.706c-1.701-1.398-12.257-1.114-13.278,0v3.523h13.278V8.706z"/>
	</g>
	<g>
		<circle cx="8.586" cy="10.052" r="2.085"/>
	</g>
</g>
<path fill="#FFFFFF" stroke="#FFFFFF" stroke-width="0.6384" stroke-miterlimit="10" d="M24.983,9.862
	c-0.813,0-1.504,0.533-1.741,1.27l-0.066-0.055c-1.154-0.949-4.754-1.091-6.797-1.091c-1.053,0-6.352,0.057-7.357,1.152
	l-0.167,0.184v0.249v0.258c-0.421-0.961-1.38-1.636-2.495-1.636c-1.381,0-2.521,1.033-2.696,2.367V8.286
	c0-1.009-0.821-1.829-1.831-1.829c-1.009,0-1.83,0.82-1.83,1.829v11.576c0,1.009,0.821,1.83,1.83,1.83
	c1.01,0,1.831-0.821,1.831-1.83v-0.383h19.49v0.383c0,1.009,0.821,1.83,1.83,1.83c1.01,0,1.831-0.821,1.831-1.83v-8.171
	C26.814,10.682,25.993,9.862,24.983,9.862z"/>
<g>
	<g>
		<path d="M24.983,10.501c-0.658,0-1.191,0.533-1.191,1.19v4.767H3.024V8.286c0-0.657-0.534-1.191-1.192-1.191
			S0.641,7.629,0.641,8.286v11.576c0,0.658,0.533,1.191,1.191,1.191s1.192-0.533,1.192-1.191v-1.021h20.768v1.021
			c0,0.658,0.533,1.191,1.191,1.191c0.66,0,1.193-0.533,1.193-1.191v-8.171C26.177,11.034,25.644,10.501,24.983,10.501z"/>
	</g>
	<g>
		<path d="M22.771,11.571c-1.701-1.399-12.257-1.114-13.277,0v3.524h13.277V11.571z"/>
	</g>
	<g>
		<circle cx="6.359" cy="12.917" r="2.085"/>
	</g>
</g>
</svg>
