<svg xmlns="http://www.w3.org/2000/svg" xmlns:xlink="http://www.w3.org/1999/xlink" viewBox="0 0 426.91 232.51">
    <title>tuev</title>
    <rect x="0.85" y="0.85" width="425.2" height="230.8" fill="#fff"/>
    <rect x="157.15" y="0.85" width="268.9" height="156.5" fill="#e6e6e6"/>
    <rect x="0.85" y="157.35" width="425.2" height="74.2" fill="#27348b"/>
    <rect x="0.85" y="0.85" width="425.2" height="230.8" fill="none" stroke="#27348b" stroke-miterlimit="3.86"
          stroke-width="1.71"/>
    <path d="M176.9,118.3l-4-5.4v5.4h-1.8v-11h1.8v5.1l4-5.1h2.2l-4.4,5.3,4.5,5.7h-2.3Z" transform="translate(0.85 0.85)"
          fill="#27348b"/>
    <path d="M185.3,118.3a9.15,9.15,0,0,1,.1-1.6h0a3,3,0,0,1-2.8,1.8c-1.8,0-2.4-1.2-2.4-2.6v-5.7h1.7v5.2c0,1,.3,1.6,1.2,1.6,1.2,0,2.1-1.3,2.1-2.9v-3.9h1.7v8.1h-1.6Z"
          transform="translate(0.85 0.85)" fill="#27348b"/>
    <path d="M194.5,118.3v-5.2c0-1-.3-1.6-1.2-1.6-1.2,0-2.1,1.3-2.1,2.9v3.9h-1.7v-8.1h1.7a9.15,9.15,0,0,1-.1,1.6h0a3,3,0,0,1,2.8-1.8c1.8,0,2.4,1.2,2.4,2.6v5.7h-1.8Z"
          transform="translate(0.85 0.85)" fill="#27348b"/>
    <path d="M203.7,118.3a7.57,7.57,0,0,1,.1-1.5h0a2.76,2.76,0,0,1-2.6,1.7c-2,0-3-1.5-3-3.8,0-2.8,1.6-4.6,4.2-4.6a4.87,4.87,0,0,1,1.2.1v-3.7h1.7v11.9h-1.6v-0.1Zm-0.1-6.7a5.7,5.7,0,0,0-1.3-.1c-1.4,0-2.3.8-2.3,3,0,1.6.5,2.5,1.6,2.5,1.3,0,2-1.5,2-2.9v-2.5Z"
          transform="translate(0.85 0.85)" fill="#27348b"/>
    <path d="M214.2,114.4H209c0,1.9.8,2.7,2.4,2.7a6.44,6.44,0,0,0,2.4-.5L214,118a8.21,8.21,0,0,1-2.8.5c-2.5,0-3.9-1.3-3.9-4.2,0-2.4,1.3-4.3,3.7-4.3s3.3,1.6,3.3,3.5A2.77,2.77,0,0,0,214.2,114.4Zm-3.4-3a1.79,1.79,0,0,0-1.8,1.8h3.4A1.49,1.49,0,0,0,210.8,111.4Z"
          transform="translate(0.85 0.85)" fill="#27348b"/>
    <path d="M221.2,118.3v-5.2c0-1-.3-1.6-1.2-1.6-1.2,0-2.1,1.3-2.1,2.9v3.9h-1.7v-8.1h1.7a9.15,9.15,0,0,1-.1,1.6h0a3,3,0,0,1,2.8-1.8c1.8,0,2.4,1.2,2.4,2.6v5.7h-1.8Z"
          transform="translate(0.85 0.85)" fill="#27348b"/>
    <path d="M230.6,118.3a9.15,9.15,0,0,1,.1-1.6h0a3,3,0,0,1-2.8,1.8c-1.8,0-2.4-1.2-2.4-2.6v-5.7h1.7v5.2c0,1,.3,1.6,1.2,1.6,1.2,0,2.1-1.3,2.1-2.9v-3.9h1.7v8.1h-1.6Z"
          transform="translate(0.85 0.85)" fill="#27348b"/>
    <path d="M239,111.8q-2.4-.45-2.4,3.3v3.3h-1.7v-8.1h1.7a5.84,5.84,0,0,1-.2,1.8h0a2.63,2.63,0,0,1,2.7-2Z"
          transform="translate(0.85 0.85)" fill="#27348b"/>
    <path d="M243.5,118.5c-1.7,0-2.2-.7-2.2-2.5v-4.4h-1.5v-1.4h1.5v-2.6l1.7-.5v3h2.1v1.4H243v3.9c0,1.2.2,1.5,1.1,1.5a4.1,4.1,0,0,0,1.1-.1v1.4A5.55,5.55,0,0,1,243.5,118.5Z"
          transform="translate(0.85 0.85)" fill="#27348b"/>
    <path d="M253.3,114.4h-5.2c0,1.9.8,2.7,2.4,2.7a6.44,6.44,0,0,0,2.4-.5l0.2,1.4a8.21,8.21,0,0,1-2.8.5c-2.5,0-3.9-1.3-3.9-4.2,0-2.4,1.3-4.3,3.7-4.3s3.3,1.6,3.3,3.5A2.77,2.77,0,0,0,253.3,114.4Zm-3.3-3a1.79,1.79,0,0,0-1.8,1.8h3.4A1.58,1.58,0,0,0,250,111.4Z"
          transform="translate(0.85 0.85)" fill="#27348b"/>
    <path d="M256.2,109a1.1,1.1,0,1,1,1.1-1.1A1.11,1.11,0,0,1,256.2,109Zm-0.9,9.3v-8.1H257v8.1h-1.7Z"
          transform="translate(0.85 0.85)" fill="#27348b"/>
    <path d="M259.6,118.3V106.4h1.7v11.9h-1.7Z" transform="translate(0.85 0.85)" fill="#27348b"/>
    <path d="M271.7,113.6a2.2,2.2,0,1,1-2.2-2.2A2.22,2.22,0,0,1,271.7,113.6Z" transform="translate(0.85 0.85)"
          fill="#27348b"/>
    <path d="M279.7,108.8V112h3.7v1.4h-3.7v4.8H278v-11h5.7v1.5h-4v0.1Z" transform="translate(0.85 0.85)"
          fill="#27348b"/>
    <path d="M289.5,111.8q-2.4-.45-2.4,3.3v3.3h-1.7v-8.1h1.7a5.84,5.84,0,0,1-.2,1.8h0a2.63,2.63,0,0,1,2.7-2Z"
          transform="translate(0.85 0.85)" fill="#27348b"/>
    <path d="M297.3,114.4h-5.2c0,1.9.8,2.7,2.4,2.7a6.44,6.44,0,0,0,2.4-.5l0.2,1.4a8.21,8.21,0,0,1-2.8.5c-2.5,0-3.9-1.3-3.9-4.2,0-2.4,1.3-4.3,3.7-4.3s3.3,1.6,3.3,3.5A2.77,2.77,0,0,0,297.3,114.4Zm-3.3-3a1.79,1.79,0,0,0-1.8,1.8h3.4A1.58,1.58,0,0,0,294,111.4Z"
          transform="translate(0.85 0.85)" fill="#27348b"/>
    <path d="M300.2,109a1.1,1.1,0,1,1,1.1-1.1A1.11,1.11,0,0,1,300.2,109Zm-0.9,9.3v-8.1H301v8.1h-1.7Z"
          transform="translate(0.85 0.85)" fill="#27348b"/>
    <path d="M312.4,118.3h-1.9l-1.4-4.2c-0.2-.5-0.3-1.1-0.5-1.7h0a11.69,11.69,0,0,1-.6,2l-1.2,3.9H305l-2.5-8.1h1.9l1.1,3.8c0.2,0.8.4,1.5,0.6,2.3h0c0.2-.8.4-1.5,0.6-2.2l1.2-3.8h1.8l1.2,3.7a15.83,15.83,0,0,1,.6,2.3h0c0.2-.7.3-1.4,0.6-2.2l1.1-3.8H315Z"
          transform="translate(0.85 0.85)" fill="#27348b"/>
    <path d="M317.4,109a1.1,1.1,0,1,1,1.1-1.1A1.11,1.11,0,0,1,317.4,109Zm-0.9,9.3v-8.1h1.7v8.1h-1.7Z"
          transform="translate(0.85 0.85)" fill="#27348b"/>
    <path d="M320.8,118.3V106.4h1.7v11.9h-1.7Z" transform="translate(0.85 0.85)" fill="#27348b"/>
    <path d="M325.1,118.3V106.4h1.7v11.9h-1.7Z" transform="translate(0.85 0.85)" fill="#27348b"/>
    <path d="M330.2,109a1.1,1.1,0,1,1,1.1-1.1A1,1,0,0,1,330.2,109Zm-0.8,9.3v-8.1h1.7v8.1h-1.7Z"
          transform="translate(0.85 0.85)" fill="#27348b"/>
    <path d="M336.4,122.5c-2.1,0-3.4-.8-3.4-2.4a2.24,2.24,0,0,1,1.3-2,1.3,1.3,0,0,1-.8-1.2,1.69,1.69,0,0,1,.9-1.4,2.45,2.45,0,0,1-1.2-2.3c0-1.7,1.3-3.1,3.6-3.1a5.07,5.07,0,0,1,1.3.2h2.7v1.4h-1.2a2,2,0,0,1,.6,1.4c0,1.8-1.2,3-3.5,3a2.48,2.48,0,0,1-.9-0.1,0.74,0.74,0,0,0-.5.6c0,0.4.4,0.6,1.3,0.6H338c1.8,0,2.8.8,2.8,2.3S339,122.5,336.4,122.5Zm1.2-4h-1.9a1.51,1.51,0,0,0-.9,1.4c0,0.9.8,1.4,2,1.4,1.5,0,2.4-.7,2.4-1.5A1.35,1.35,0,0,0,337.6,118.5Zm-0.8-7.1a1.7,1.7,0,1,0,1.8,1.7A1.65,1.65,0,0,0,336.8,111.4Z"
          transform="translate(0.85 0.85)" fill="#27348b"/>
    <path d="M348.9,114.4h-5.2c0,1.9.8,2.7,2.4,2.7a6.44,6.44,0,0,0,2.4-.5l0.2,1.4a8.21,8.21,0,0,1-2.8.5c-2.5,0-3.9-1.3-3.9-4.2,0-2.4,1.3-4.3,3.7-4.3s3.3,1.6,3.3,3.5A2.77,2.77,0,0,1,348.9,114.4Zm-3.3-3a1.79,1.79,0,0,0-1.8,1.8h3.4A1.54,1.54,0,0,0,345.6,111.4Z"
          transform="translate(0.85 0.85)" fill="#27348b"/>
    <path d="M357.1,114.3h-0.8v4.1h-1.8v-11c0.8,0,1.8-.1,2.8-0.1,2.6,0,4,1.3,4,3.3S359.7,114.3,357.1,114.3Zm0.1-5.6h-0.9v4c0.2,0,.5.1,0.8,0.1,1.5,0,2.5-.8,2.5-2.1A2.07,2.07,0,0,0,357.2,108.7Z"
          transform="translate(0.85 0.85)" fill="#27348b"/>
    <path d="M367.2,111.8q-2.4-.45-2.4,3.3v3.3h-1.7v-8.1h1.7a5.84,5.84,0,0,1-.2,1.8h0a2.63,2.63,0,0,1,2.7-2Z"
          transform="translate(0.85 0.85)" fill="#27348b"/>
    <path d="M374,118.3a9.15,9.15,0,0,1,.1-1.6h0a3,3,0,0,1-2.8,1.8c-1.8,0-2.4-1.2-2.4-2.6v-5.7h1.7v5.2c0,1,.3,1.6,1.2,1.6,1.2,0,2.1-1.3,2.1-2.9v-3.9h1.7v8.1H374Zm-3.4-9.6a0.94,0.94,0,0,1-1-1,1,1,0,0,1,1-1,0.94,0.94,0,0,1,1,1A1,1,0,0,1,370.6,108.7Zm3.2,0a0.94,0.94,0,0,1-1-1A1,1,0,1,1,373.8,108.7Z"
          transform="translate(0.85 0.85)" fill="#27348b"/>
    <path d="M383,107.9a4.25,4.25,0,0,0-1.1-.2q-1.5,0-1.5,1.8v0.7h2.1v1.4h-2.1v6.7h-1.7v-6.7h-1.5v-1.4h1.5v-0.6c0-2.2,1.1-3.3,3.2-3.3a5.28,5.28,0,0,1,1.3.1Z"
          transform="translate(0.85 0.85)" fill="#27348b"/>
    <path d="M389.1,118.3a9.15,9.15,0,0,1,.1-1.6h0a3,3,0,0,1-2.8,1.8c-1.8,0-2.4-1.2-2.4-2.6v-5.7h1.7v5.2c0,1,.3,1.6,1.2,1.6,1.2,0,2.1-1.3,2.1-2.9v-3.9h1.7v8.1h-1.6Z"
          transform="translate(0.85 0.85)" fill="#27348b"/>
    <path d="M398.3,118.3v-5.2c0-1-.3-1.6-1.2-1.6-1.2,0-2.1,1.3-2.1,2.9v3.9h-1.7v-8.1H395a9.15,9.15,0,0,1-.1,1.6h0a3,3,0,0,1,2.8-1.8c1.8,0,2.4,1.2,2.4,2.6v5.7h-1.8Z"
          transform="translate(0.85 0.85)" fill="#27348b"/>
    <path d="M405.4,122.5c-2.1,0-3.4-.8-3.4-2.4a2.24,2.24,0,0,1,1.3-2,1.3,1.3,0,0,1-.8-1.2,1.69,1.69,0,0,1,.9-1.4,2.45,2.45,0,0,1-1.2-2.3c0-1.7,1.3-3.1,3.6-3.1a5.07,5.07,0,0,1,1.3.2h2.7v1.4h-1.2a2,2,0,0,1,.6,1.4c0,1.8-1.2,3-3.5,3a2.48,2.48,0,0,1-.9-0.1,0.74,0.74,0,0,0-.5.6c0,0.4.4,0.6,1.3,0.6H407c1.8,0,2.8.8,2.8,2.3S408,122.5,405.4,122.5Zm1.1-4h-1.9a1.51,1.51,0,0,0-.9,1.4c0,0.9.8,1.4,2,1.4,1.5,0,2.4-.7,2.4-1.5A1.35,1.35,0,0,0,406.5,118.5Zm-0.8-7.1a1.7,1.7,0,1,0,1.8,1.7A1.61,1.61,0,0,0,405.7,111.4Z"
          transform="translate(0.85 0.85)" fill="#27348b"/>
    <path d="M173.4,142.5V130.2l-2.7,1.1-0.4-2.2,3.7-1.3h1.8v14.7h-2.4Z" transform="translate(0.85 0.85)"
          fill="#27348b"/>
    <path d="M183.8,142.7c-3,0-5.3-2-5.3-7.5,0-5.1,2.6-7.5,5.6-7.5,3.4,0,5.3,2.4,5.3,7.3C189.4,140.5,186.6,142.7,183.8,142.7Zm0.2-13.2c-1.7,0-3,1.5-3,5.4,0,3.7.8,5.7,2.9,5.7,1.6,0,3-1.6,3-5.6S186,129.5,184,129.5Z"
          transform="translate(0.85 0.85)" fill="#27348b"/>
    <path d="M193.3,142.5H191l5.6-14.7h2.3Z" transform="translate(0.85 0.85)" fill="#27348b"/>
    <path d="M200.7,142.5v-1.9l2.5-2.9c2.5-2.8,3.1-4.3,3.1-5.6a2.18,2.18,0,0,0-2.4-2.3,5.79,5.79,0,0,0-2.8.9l-0.4-2.1a8.19,8.19,0,0,1,3.8-.9c2.8,0,4.3,1.8,4.3,4,0,2-1,3.8-3.5,6.8l-1.7,1.9h0c1.4-.1,3.4-0.1,5.6-0.1v2.2h-8.5Z"
          transform="translate(0.85 0.85)" fill="#27348b"/>
    <path d="M216.6,142.7c-3,0-5.3-2-5.3-7.5,0-5.1,2.6-7.5,5.6-7.5,3.4,0,5.3,2.4,5.3,7.3C222.2,140.5,219.3,142.7,216.6,142.7Zm0.2-13.2c-1.7,0-3,1.5-3,5.4,0,3.7.8,5.7,2.9,5.7,1.6,0,3-1.6,3-5.6S218.7,129.5,216.8,129.5Z"
          transform="translate(0.85 0.85)" fill="#27348b"/>
    <path d="M226.6,142.5V130.2l-2.7,1.1-0.4-2.2,3.7-1.3H229v14.7h-2.4Z" transform="translate(0.85 0.85)"
          fill="#27348b"/>
    <path d="M240,138.9v3.5h-2.3v-3.5h-6.2l-0.3-1.8,5.8-9.3h3v9h2.3v2.1H240Zm-2.3-8.8h0l-4.3,6.8h4.3v-6.8Z"
          transform="translate(0.85 0.85)" fill="#27348b"/>
    <path d="M262.7,142.5l-5-8.3a18.38,18.38,0,0,1-1.6-3.1c0.1,1.4.1,4.4,0.1,6.5v4.9h-2.3V127.8H257l4.8,8c0.7,1.1,1.2,2.3,1.8,3.3-0.1-1.7-.2-4.8-0.2-7v-4.3h2.3v14.7h-3Z"
          transform="translate(0.85 0.85)" fill="#27348b"/>
    <path d="M274.7,133.7c-2.2-.4-3.2,1.1-3.2,4.3v4.4h-2.3V131.6h2.2a23.2,23.2,0,0,1-.2,2.4h0a3.33,3.33,0,0,1,3.6-2.6Z"
          transform="translate(0.85 0.85)" fill="#27348b"/>
    <path d="M278,141.2a1.5,1.5,0,1,1-1.5-1.5A1.42,1.42,0,0,1,278,141.2Z" transform="translate(0.85 0.85)"
          fill="#27348b"/>
    <path d="M285,142.5v-1.9l2.5-2.9c2.5-2.8,3.1-4.3,3.1-5.6a2.18,2.18,0,0,0-2.4-2.3,5.79,5.79,0,0,0-2.8.9l-0.4-2.1a8.19,8.19,0,0,1,3.8-.9c2.8,0,4.3,1.8,4.3,4,0,2-1,3.8-3.5,6.8l-1.7,1.9h0c1.4-.1,3.4-0.1,5.6-0.1v2.2H285Z"
          transform="translate(0.85 0.85)" fill="#27348b"/>
    <path d="M298.1,142.7a12.73,12.73,0,0,1-2.2-.2l0.2-2.1a6.45,6.45,0,0,0,2,.3c1.9,0,3.1-1.1,3.1-2.5s-1.3-2.7-4.7-2.2v-2c3.2,0.1,4.4-1,4.4-2.5,0-1.2-.8-2-2.3-2a5.42,5.42,0,0,0-2.5.6l-0.2-2a8.33,8.33,0,0,1,3.2-.7c2.8,0,4.2,1.5,4.2,3.5a3.58,3.58,0,0,1-2.4,3.4v0.1a3.38,3.38,0,0,1,2.8,3.5C303.8,140.8,301.5,142.7,298.1,142.7Z"
          transform="translate(0.85 0.85)" fill="#27348b"/>
    <path d="M306.5,142.5v-1.9l2.5-2.9c2.5-2.8,3.1-4.3,3.1-5.6a2.18,2.18,0,0,0-2.4-2.3,5.79,5.79,0,0,0-2.8.9l-0.4-2.1a8.19,8.19,0,0,1,3.8-.9c2.8,0,4.3,1.8,4.3,4,0,2-1,3.8-3.5,6.8l-1.7,1.9h0c1.4-.1,3.4-0.1,5.6-0.1v2.2h-8.5Z"
          transform="translate(0.85 0.85)" fill="#27348b"/>
    <path d="M322.3,142.7c-3,0-4.9-2.1-4.9-6.1,0-6.2,3.3-8.9,7.5-8.9a6.18,6.18,0,0,1,1.5.1v2.1a7.77,7.77,0,0,0-1.6-.2c-2.6,0-4.2,1.5-4.8,4.2a3.09,3.09,0,0,1-.2.8h0a3.82,3.82,0,0,1,3.4-1.5,4.15,4.15,0,0,1,4.5,4.3A5,5,0,0,1,322.3,142.7Zm0.3-7.6a2.8,2.8,0,1,0,2.6,2.7A2.4,2.4,0,0,0,322.6,135.1Z"
          transform="translate(0.85 0.85)" fill="#27348b"/>
    <polygon
            points="129.75 26.75 145.35 26.75 125.05 110.45 111.15 110.45 97.45 58.05 113.35 58.05 118.25 78.55 129.75 26.75"
            fill="#27348b"/>
    <polygon
            points="15.55 37.45 52.35 37.45 52.35 54.85 42.75 54.85 42.75 110.75 26.35 110.75 26.35 54.95 15.55 54.95 15.55 37.45"
            fill="#27348b"/>
    <rect x="55.85" y="37.45" width="16.3" height="17.3" fill="#27348b"/>
    <rect x="78.65" y="37.45" width="16.3" height="17.3" fill="#27348b"/>
    <g>
        <path d="M54.9,57.2H71.2V90.6c0,1.9.6,3.4,3.4,3.4h3V57.2H94v52.7H69.7c-9,0-14.8-4.2-14.8-16.2V57.2Z"
              transform="translate(0.85 0.85)" fill="#27348b"/>
    </g>
    <g>
        <path d="M123.6,142.5h6.2c4.3,0,6.6-2.3,6.6-7.3v-9.6c0-5-2.3-7.3-6.6-7.3h-6.2v24.2Zm4.2-20.8h1.4c2.2,0,3,.8,3,3.4v10.6c0,2.5-.8,3.4-3,3.4h-1.4V121.7Zm-16.4,20.8V127.4h0.1l5.3,15.1h3.6V118.3h-3.7v13.8h-0.1l-5.1-13.8h-3.8v24.2h3.7Zm-15.5-5.4h4.5l0.7,5.4h4l-4.5-24.2H95.4L91,142.5h4Zm2.2-14h0l1.7,10.4H96.5Zm-8.7,19.4v-3.6H82.9V118.4H78.8v24.2H89.4v-0.1Zm-22.7-10a13.42,13.42,0,0,0,2.1-.1l2.9,10H76l-3.5-10.9c1.4-.6,2.9-2.2,2.9-6.1,0-5.2-2.4-7.1-7-7.1H62.6v24.2h4.2v-10H66.7Zm0-10.8h1.5c2.2,0,3.1.8,3.1,3.7s-0.8,3.7-3.1,3.7H66.7v-7.4ZM50.9,137.1h4.5l0.7,5.4h4l-4.5-24.2H50.4l-4.5,24.2h4Zm2.2-14h0l1.7,10.4H51.5Zm-17.9,14h4.5l0.7,5.4h4L40,118.3H34.8l-4.5,24.2h4Zm2.2-14h0l1.7,10.4H35.8Zm-8.8.7c-0.4-3.4-2.4-5.9-5.8-5.9-4.1,0-6.4,2.2-6.4,6,0,6.9,8.4,8.2,8.4,13a2.16,2.16,0,0,1-2.4,2.2c-1.3,0-2.3-1.2-2.5-3.6l-3.9.6c0.2,3.6,2.4,6.7,6.2,6.7s6.6-2.2,6.6-6.2c0-6.6-8.4-8.5-8.4-12.6,0-1.5.7-2.4,2.1-2.4,0.9,0,2,.6,2.2,2.7Z"
              transform="translate(0.85 0.85)" fill="#27348b"/>
    </g>
    <path d="M175.7,37.8c-3.3,0-4.9-2.2-4.9-5.5,0-3.6,2.4-5.8,5.3-5.8s5,1.8,5,5.5S178.6,37.8,175.7,37.8Zm0.2-9.8c-1.7,0-3.2,1.4-3.2,4s1,4.2,3.2,4.2c1.6,0,3.3-1.3,3.3-4S177.9,28,175.9,28Z"
          transform="translate(0.85 0.85)" fill="#27348b"/>
    <path d="M187.9,37.6V32.4c0-1-.3-1.6-1.2-1.6-1.2,0-2.1,1.3-2.1,2.9v3.9h-1.7V29.5h1.7a9.15,9.15,0,0,1-.1,1.6h0a3,3,0,0,1,2.8-1.8c1.8,0,2.4,1.2,2.4,2.6v5.7h-1.8Z"
          transform="translate(0.85 0.85)" fill="#27348b"/>
    <path d="M192.2,37.6V25.7h1.7V37.6h-1.7Z" transform="translate(0.85 0.85)" fill="#27348b"/>
    <path d="M197.3,28.3a1.1,1.1,0,1,1,1.1-1.1A1.11,1.11,0,0,1,197.3,28.3Zm-0.8,9.3V29.5h1.7v8.1h-1.7Z"
          transform="translate(0.85 0.85)" fill="#27348b"/>
    <path d="M205.8,37.6V32.4c0-1-.3-1.6-1.2-1.6-1.2,0-2.1,1.3-2.1,2.9v3.9h-1.7V29.5h1.7a9.15,9.15,0,0,1-.1,1.6h0a3,3,0,0,1,2.8-1.8c1.8,0,2.4,1.2,2.4,2.6v5.7h-1.8Z"
          transform="translate(0.85 0.85)" fill="#27348b"/>
    <path d="M216.4,33.7h-5.2c0,1.9.8,2.7,2.4,2.7a6.44,6.44,0,0,0,2.4-.5l0.2,1.4a8.21,8.21,0,0,1-2.8.5c-2.5,0-3.9-1.3-3.9-4.2,0-2.4,1.3-4.3,3.7-4.3s3.3,1.6,3.3,3.5A2.48,2.48,0,0,0,216.4,33.7ZM213,30.6a1.79,1.79,0,0,0-1.8,1.8h3.4A1.49,1.49,0,0,0,213,30.6Z"
          transform="translate(0.85 0.85)" fill="#27348b"/>
    <path d="M223.9,37.8a7.32,7.32,0,0,1-2.2-.3l0.1-1.7a7.88,7.88,0,0,0,2.3.4c1.2,0,2.2-.5,2.2-1.7,0-2.3-4.8-1.3-4.8-4.9,0-1.9,1.5-3.2,4-3.2a13.55,13.55,0,0,1,2,.2l-0.1,1.6a6.45,6.45,0,0,0-2-.3c-1.4,0-2.1.6-2.1,1.5,0,2.2,4.8,1.4,4.8,4.8C228.1,36.3,226.5,37.8,223.9,37.8Z"
          transform="translate(0.85 0.85)" fill="#27348b"/>
    <path d="M235.2,37.6V32.4c0-1-.3-1.6-1.2-1.6-1.2,0-2.1,1.3-2.1,2.9v3.9h-1.7V25.7h1.7v3.7a8.08,8.08,0,0,1-.1,1.6h0a3,3,0,0,1,2.8-1.7c1.8,0,2.4,1.2,2.4,2.6v5.7h-1.8Z"
          transform="translate(0.85 0.85)" fill="#27348b"/>
    <path d="M242.5,37.8c-2.2,0-3.7-1.3-3.7-4.1a4,4,0,0,1,4-4.3c2.2,0,3.7,1.2,3.7,4.1A4,4,0,0,1,242.5,37.8Zm0.2-7c-1.1,0-2.1.8-2.1,2.7s0.7,2.8,2.1,2.8c1.1,0,2.1-.9,2.1-2.8C244.7,31.8,244,30.8,242.7,30.8Z"
          transform="translate(0.85 0.85)" fill="#27348b"/>
    <path d="M251.4,37.7a4.48,4.48,0,0,1-1.2-.1v4h-1.7V29.5h1.6A7.57,7.57,0,0,1,250,31h0a2.87,2.87,0,0,1,2.6-1.7c1.9,0,3,1.4,3,3.8C255.6,36,254.1,37.7,251.4,37.7Zm0.7-6.9c-1.3,0-2,1.5-2,2.9v2.5a5.07,5.07,0,0,0,1.3.2c1.4,0,2.3-.8,2.3-3C253.7,31.7,253.2,30.8,252.1,30.8Z"
          transform="translate(0.85 0.85)" fill="#27348b"/>
    <path d="M262,37.6h-1.7l4.2-11h1.7Z" transform="translate(0.85 0.85)" fill="#27348b"/>
    <path d="M274,33.6h-0.8v4.1h-1.8v-11c0.8,0,1.8-.1,2.8-0.1,2.6,0,4,1.3,4,3.3S276.6,33.6,274,33.6Zm0.1-5.6h-0.9v4c0.2,0,.5.1,0.8,0.1,1.5,0,2.5-.8,2.5-2.1S275.7,28,274.1,28Z"
          transform="translate(0.85 0.85)" fill="#27348b"/>
    <path d="M282.7,37.8c-2.2,0-3.7-1.3-3.7-4.1a4,4,0,0,1,4-4.3c2.2,0,3.7,1.2,3.7,4.1A4,4,0,0,1,282.7,37.8Zm0.2-7c-1.1,0-2.1.8-2.1,2.7s0.7,2.8,2.1,2.8c1.1,0,2.1-.9,2.1-2.8C284.9,31.8,284.3,30.8,282.9,30.8Z"
          transform="translate(0.85 0.85)" fill="#27348b"/>
    <path d="M292.8,31.1q-2.4-.45-2.4,3.3v3.3h-1.7V29.6h1.7a5.84,5.84,0,0,1-.2,1.8h0a2.63,2.63,0,0,1,2.7-2Z"
          transform="translate(0.85 0.85)" fill="#27348b"/>
    <path d="M297.3,37.7c-1.7,0-2.2-.7-2.2-2.5V30.8h-1.5V29.4h1.5V26.8l1.7-.5v3h2.1v1.4h-2.1v3.9c0,1.2.2,1.5,1.1,1.5A4.1,4.1,0,0,0,299,36v1.4A3.61,3.61,0,0,1,297.3,37.7Z"
          transform="translate(0.85 0.85)" fill="#27348b"/>
    <path d="M305.1,37.6a7.08,7.08,0,0,1,.1-1.5h0a2.8,2.8,0,0,1-2.7,1.7,2.05,2.05,0,0,1-2.3-2.1c0-1.9,1.9-2.9,4.8-2.9V32.3c0-1-.4-1.5-1.7-1.5a4.42,4.42,0,0,0-2.4.7L300.7,30a8.21,8.21,0,0,1,2.8-.5c2.5,0,3.2,1.1,3.2,2.7v5.5h-1.6V37.6Zm-0.2-3.7c-2.5,0-3.1.8-3.1,1.5a1,1,0,0,0,1.1,1,2.15,2.15,0,0,0,2-2.3V33.9Z"
          transform="translate(0.85 0.85)" fill="#27348b"/>
    <path d="M309.3,37.6V25.7H311V37.6h-1.7Z" transform="translate(0.85 0.85)" fill="#27348b"/>
    <path d="M177.9,88a27.66,27.66,0,0,1-6.1-.7l0.3-4.6a20.22,20.22,0,0,0,6.3,1.1c3.3,0,6-1.4,6-4.7,0-6.4-13.3-3.7-13.3-13.5,0-5.2,4.1-8.9,11.1-8.9a35.14,35.14,0,0,1,5.5.5l-0.3,4.4a21.07,21.07,0,0,0-5.5-.9c-3.8,0-5.7,1.8-5.7,4.3,0,6.1,13.3,3.8,13.3,13.3C189.6,83.9,185.1,88,177.9,88Z"
          transform="translate(0.85 0.85)" fill="#27348b"/>
    <path d="M195.2,87.5V57.2h16v4.1H200.1v8.6h10.6v4H200.1v9.4h11.1v4.2h-16Z" transform="translate(0.85 0.85)"
          fill="#27348b"/>
    <path d="M236.8,87.5V73.9H222.5V87.5h-4.9V57.2h4.9V69.7h14.3V57.2h4.9V87.5h-4.9Z" transform="translate(0.85 0.85)"
          fill="#27348b"/>
    <path d="M264.1,87.5l-9.4-13.1h-0.2V87.5h-4.9V57.2c2.2-.1,4.7-0.2,8.1-0.2,6.3,0,10.6,2.2,10.6,8.2,0,4.9-3.6,8-8.6,8.5,0.9,1.1,1.8,2.2,2.6,3.2l8,10.6h-6.2ZM257,61a21.75,21.75,0,0,0-2.6.1v9.6c0.4,0,1.3.1,2.4,0.1,4,0,6.3-2,6.3-5C263.2,62.4,261.1,61,257,61Z"
          transform="translate(0.85 0.85)" fill="#27348b"/>
    <path d="M307.2,62.6a22.06,22.06,0,0,0-8.1-1.6c-6.1,0-11,4-11,11.5,0,7,4,11.1,10.5,11.1a16.6,16.6,0,0,0,4.7-.7v-11h4.9V86.2A28.41,28.41,0,0,1,298,88c-9.4,0-15.2-5.6-15.2-15s6.3-16.2,16.7-16.2a27,27,0,0,1,8.5,1.3Z"
          transform="translate(0.85 0.85)" fill="#27348b"/>
    <path d="M326.6,88C317,88,315,82.8,315,77.2v-20h4.9V76.8c0,4,1.3,7.1,7,7.1,4.9,0,7.2-2.1,7.2-7.7v-19h4.8V75.9C338.9,83.9,334.5,88,326.6,88Z"
          transform="translate(0.85 0.85)" fill="#27348b"/>
    <path d="M355.7,61.3V87.5h-4.9V61.3h-8.3V57.2h21.6v4.1h-8.4Z" transform="translate(0.85 0.85)" fill="#27348b"/>
    <path d="M243.7,213.1a7.8,7.8,0,0,1-2.2.3,19.27,19.27,0,0,1-2.4.1c-2.4,0-4.1-.5-5-1.7s-1.4-3-1.4-5.5V192.5h-4.9v-3.4h4.9v-7.7l4.3-1.2v8.9h6.7v3.4H237v12.2c0,1.9.2,3.3,0.7,4a2.85,2.85,0,0,0,2.7,1,16.56,16.56,0,0,0,3.3-.4v3.8h0Z"
          transform="translate(0.85 0.85)" fill="#fff"/>
    <path d="M267.8,198.9c0,0.6-.1,1.3-0.1,2.1H252c-0.1,3.2.5,5.5,1.8,7s3.2,2.2,5.8,2.2a15.53,15.53,0,0,0,3.7-.4,16,16,0,0,0,3.3-1.1l0.4,3.5a20.53,20.53,0,0,1-8.1,1.5q-5.55,0-8.4-3c-1.9-2-2.9-5.1-2.9-9.3a14.65,14.65,0,0,1,1.3-6.4,9.78,9.78,0,0,1,3.6-4.4,9.89,9.89,0,0,1,5.8-1.6,10.19,10.19,0,0,1,5.5,1.4,8.33,8.33,0,0,1,3.1,3.6,14.74,14.74,0,0,1,.9,4.9h0Zm-4.5-1a5.63,5.63,0,0,0-1.4-4.2,5.26,5.26,0,0,0-4-1.6,5.35,5.35,0,0,0-3.9,1.6,7.43,7.43,0,0,0-1.9,4.2h11.2Z"
          transform="translate(0.85 0.85)" fill="#fff"/>
    <path d="M288,206.1a6.54,6.54,0,0,1-2.7,5.4c-1.8,1.4-4.3,2.1-7.5,2.2a37.54,37.54,0,0,1-5-.4l0.1-3.9c0.8,0.2,1.6.4,2.5,0.6a24.52,24.52,0,0,0,2.7.2,6.65,6.65,0,0,0,3.9-1,3,3,0,0,0,1.5-2.7,2.9,2.9,0,0,0-1.7-2.7,27.65,27.65,0,0,0-3.8-1.4,10.67,10.67,0,0,1-3.8-2,5.43,5.43,0,0,1-1.7-4.4,6.26,6.26,0,0,1,2.4-5.1c1.6-1.3,4-2,7.1-2.1a18.48,18.48,0,0,1,2.3.1l2.3,0.3-0.1,3.6a16.09,16.09,0,0,0-4.8-.8,6,6,0,0,0-3.6.9,3.09,3.09,0,0,0,.5,5.2,27.37,27.37,0,0,0,3.8,1.5,9.89,9.89,0,0,1,3.8,2,6,6,0,0,1,1.8,4.5h0Z"
          transform="translate(0.85 0.85)" fill="#fff"/>
    <path d="M306.4,213.1a7.8,7.8,0,0,1-2.2.3,19.27,19.27,0,0,1-2.4.1c-2.4,0-4.1-.5-5-1.7s-1.4-3-1.4-5.5V192.5h-4.9v-3.4h4.9v-7.7l4.3-1.2v8.9h6.7v3.4h-6.7v12.2c0,1.9.2,3.3,0.7,4a2.85,2.85,0,0,0,2.7,1,16.56,16.56,0,0,0,3.3-.4v3.8h0Z"
          transform="translate(0.85 0.85)" fill="#fff"/>
    <path d="M330.4,198.9c0,0.6-.1,1.3-0.1,2.1H314.7c-0.1,3.2.5,5.5,1.8,7s3.2,2.2,5.8,2.2a15.53,15.53,0,0,0,3.7-.4,16,16,0,0,0,3.3-1.1l0.4,3.5a20.53,20.53,0,0,1-8.1,1.5q-5.55,0-8.4-3c-1.9-2-2.9-5.1-2.9-9.3a14.65,14.65,0,0,1,1.3-6.4,9.78,9.78,0,0,1,3.6-4.4A9.89,9.89,0,0,1,321,189a10.19,10.19,0,0,1,5.5,1.4,8.33,8.33,0,0,1,3.1,3.6,14.8,14.8,0,0,1,.8,4.9h0Zm-4.4-1a5.63,5.63,0,0,0-1.4-4.2,5.26,5.26,0,0,0-4-1.6,5.35,5.35,0,0,0-3.9,1.6,7.43,7.43,0,0,0-1.9,4.2H326Z"
          transform="translate(0.85 0.85)" fill="#fff"/>
    <path d="M355.3,213.2h-4.2a20.93,20.93,0,0,1,.1-2.4q0.15-1.35.3-2.4h-0.1a9.15,9.15,0,0,1-3.1,3.9,9.76,9.76,0,0,1-4.9,1.5,7.74,7.74,0,0,1-6.6-3c-1.5-2-2.2-4.7-2.2-8.2,0-4.2,1.2-7.5,3.3-9.8a12.34,12.34,0,0,1,9-3.6c1.3,0,2.6.1,4,.2V178.3h4.3v34.9h0.1ZM351,200.9V193a16,16,0,0,0-4.2-.5,7,7,0,0,0-5.5,2.2c-1.4,1.5-2.1,4-2.1,7.4a11.14,11.14,0,0,0,1.3,6,4.41,4.41,0,0,0,4,2.1,4.91,4.91,0,0,0,3.6-1.5,8.39,8.39,0,0,0,2.2-3.5,13.33,13.33,0,0,0,.7-4.3h0Z"
          transform="translate(0.85 0.85)" fill="#fff"/>
    <path d="M87,203.5a9,9,0,0,1-3.2,7.2c-2.1,1.8-5.1,2.8-8.9,2.8a25.69,25.69,0,0,1-6.5-.8l0.2-4.2a24.91,24.91,0,0,0,3.2.8c1.2,0.2,2.3.3,3.5,0.4a8.66,8.66,0,0,0,5-1.3,5.16,5.16,0,0,0,2.1-4.3,4.3,4.3,0,0,0-1.5-3.3,12.45,12.45,0,0,0-3.6-2c-1.4-.6-2.9-1.2-4.3-1.8a10,10,0,0,1-3.6-2.8,7.26,7.26,0,0,1-1.5-4.8,8.26,8.26,0,0,1,3-6.6c2-1.7,4.8-2.5,8.5-2.6a29.53,29.53,0,0,1,5.9.6l-0.2,3.9a29,29,0,0,0-5.9-.9,7.84,7.84,0,0,0-5,1.4,4.52,4.52,0,0,0-1.7,3.7,3.8,3.8,0,0,0,1.5,3.2,12.45,12.45,0,0,0,3.6,2c1.4,0.6,2.9,1.2,4.3,1.9a9.22,9.22,0,0,1,3.6,2.8,6.8,6.8,0,0,1,1.5,4.7h0Z"
          transform="translate(0.85 0.85)" fill="#fff"/>
    <path d="M111.7,198.8a16.23,16.23,0,0,1-.1,2.1H96c-0.1,3.2.5,5.5,1.8,7s3.2,2.2,5.8,2.2a15.53,15.53,0,0,0,3.7-.4,16,16,0,0,0,3.3-1.1l0.4,3.5a20.53,20.53,0,0,1-8.1,1.5q-5.55,0-8.4-3c-1.9-2-2.9-5.1-2.9-9.3a14.35,14.35,0,0,1,1.3-6.4,9.78,9.78,0,0,1,3.6-4.4,9.89,9.89,0,0,1,5.8-1.6,10.19,10.19,0,0,1,5.5,1.4,8.33,8.33,0,0,1,3.1,3.6,14.8,14.8,0,0,1,.8,4.9h0Zm-4.4-1a5.63,5.63,0,0,0-1.4-4.2,4.93,4.93,0,0,0-4-1.6,5.35,5.35,0,0,0-3.9,1.6,7.43,7.43,0,0,0-1.9,4.2h11.2Z"
          transform="translate(0.85 0.85)" fill="#fff"/>
    <path d="M130,188.6l-0.2,4.2c-2.5-.4-4.4.3-5.6,2.1s-1.8,4.6-1.8,8.4v9.6H118V189h4.2a26.23,26.23,0,0,1-.1,2.7c-0.1,1-.2,2-0.4,3h0.1a10.36,10.36,0,0,1,1.5-3.2,6.67,6.67,0,0,1,2.7-2.3,8.05,8.05,0,0,1,4-.6h0Z"
          transform="translate(0.85 0.85)" fill="#fff"/>
    <path d="M165.9,182.4a2.52,2.52,0,0,1-.9,2,2.9,2.9,0,0,1-4,0,3.37,3.37,0,0,1-.9-2,2.67,2.67,0,0,1,.9-2,2.9,2.9,0,0,1,4,0,2.52,2.52,0,0,1,.9,2h0Zm-0.7,30.7h-4.3V189.2h4.3v23.9h0Z"
          transform="translate(0.85 0.85)" fill="#fff"/>
    <path d="M188.6,212.2a28.23,28.23,0,0,1-3,.9,23.37,23.37,0,0,1-3.9.4,13.17,13.17,0,0,1-5.3-1,8.23,8.23,0,0,1-3.8-3.6,14.79,14.79,0,0,1-1.4-6.9,15.88,15.88,0,0,1,1.3-6.8,10,10,0,0,1,4-4.6,12.44,12.44,0,0,1,6.6-1.7,19.05,19.05,0,0,1,5.4.8l-0.5,3.8a13.63,13.63,0,0,0-5.1-1,6.39,6.39,0,0,0-5.4,2.5,10.66,10.66,0,0,0-1.8,6.5,10.54,10.54,0,0,0,1.4,5.9q1.5,2.4,5.4,2.4a15.26,15.26,0,0,0,3-.3,7.94,7.94,0,0,0,2.7-1l0.4,3.7h0Z"
          transform="translate(0.85 0.85)" fill="#fff"/>
    <path d="M212.3,198.8a16.23,16.23,0,0,1-.1,2.1H196.6c-0.1,3.2.5,5.5,1.8,7s3.2,2.2,5.8,2.2a15.53,15.53,0,0,0,3.7-.4,16,16,0,0,0,3.3-1.1l0.4,3.5a20.53,20.53,0,0,1-8.1,1.5q-5.55,0-8.4-3c-1.9-2-2.9-5.1-2.9-9.3a14.35,14.35,0,0,1,1.3-6.4,9.78,9.78,0,0,1,3.6-4.4,9.89,9.89,0,0,1,5.8-1.6,10.19,10.19,0,0,1,5.5,1.4,8.33,8.33,0,0,1,3.1,3.6,14.8,14.8,0,0,1,.8,4.9h0Zm-4.4-1a5.63,5.63,0,0,0-1.4-4.2,4.93,4.93,0,0,0-4-1.6,5.35,5.35,0,0,0-3.9,1.6,7.43,7.43,0,0,0-1.9,4.2h11.2Z"
          transform="translate(0.85 0.85)" fill="#fff"/>
    <path d="M144.4,200s2.8-7.8,4.4-10.9a101.42,101.42,0,0,1,5.5-9.7,70.87,70.87,0,0,1,7.1-8.2,31.06,31.06,0,0,1,5.7-4.5,17.89,17.89,0,0,1,4.8-2s-4.3,4.5-5.8,6.4-5.1,5.4-6.7,7.9a110.3,110.3,0,0,0-6.5,11.4,55.94,55.94,0,0,0-3.7,10.4c-0.7,2.6-1.5,9.7-1.6,10.5a3,3,0,0,1-1.3,2.2c-0.5.3-1.6-.5-2-1.1a34.3,34.3,0,0,1-2.4-6,39,39,0,0,0-3.4-8.4,22.34,22.34,0,0,0-3.8-4.8,20.1,20.1,0,0,0-2.1-1.8s1.9-1.2,3.4-.8a6.18,6.18,0,0,1,4.2,2.5C141.4,194.4,144.4,200,144.4,200Z"
          transform="translate(0.85 0.85)" fill="#ef7d00"/>
    <polygon points="411.05 158.55 292.75 176.15 289.35 153.05 407.65 135.45 411.05 158.55" fill="#706f6f"/>
    <path d="M302.3,168.4c-2.1.3-2.9-.4-3.2-2.6l-0.8-5.4-1.9.3-0.2-1.6,1.9-.3-0.5-3.1,2-.9,0.5,3.7,2.6-.4,0.2,1.6-2.6.4,0.7,4.7c0.2,1.5.6,1.8,1.6,1.7l1.3-.3,0.3,1.7A6.68,6.68,0,0,1,302.3,168.4Z"
          transform="translate(0.85 0.85)" fill="#fff"/>
    <path d="M312.7,166.8a6.08,6.08,0,0,1-.1-1.9h0a3.54,3.54,0,0,1-3.1,2.6c-2.2.3-3.1-1-3.4-2.7l-1-6.9,2.1-.3,0.9,6.3c0.2,1.2.6,1.9,1.7,1.7,1.5-.2,2.4-1.9,2.1-3.9l-0.7-4.8,2.1-.3,1.4,9.9Z"
          transform="translate(0.85 0.85)" fill="#fff"/>
    <path d="M324.8,160.1l-6.3.9c0.3,2.3,1.4,3.2,3.4,2.9a6.72,6.72,0,0,0,2.8-1l0.4,1.7a7.19,7.19,0,0,1-3.3,1.1c-3.1.4-5-.9-5.5-4.4-0.4-3,.9-5.4,3.8-5.8s4.3,1.3,4.6,3.7A2.22,2.22,0,0,1,324.8,160.1Zm-4.5-3.1a2.33,2.33,0,0,0-1.9,2.5l4.2-.6A2,2,0,0,0,320.3,157Z"
          transform="translate(0.85 0.85)" fill="#fff"/>
    <path d="M332.2,164l-2.2.3-5.1-9.3,2.3-.3,2.6,5a16.32,16.32,0,0,1,.9,1.9h0c0.1-.6.2-1.4,0.3-2l1.1-5.6,2.3-.3Z"
          transform="translate(0.85 0.85)" fill="#fff"/>
    <path d="M335.9,159.2l-0.2-1.7,4.8-.7,0.2,1.7Z" transform="translate(0.85 0.85)" fill="#fff"/>
    <path d="M345.4,162.3a15.48,15.48,0,0,1-2.1.1l-0.2-1.8a8.07,8.07,0,0,0,2.2,0c1.2-.2,1.9-0.8,1.8-1.6-0.3-2-4.4-.2-4.9-3.6-0.2-1.7.9-3.3,3.6-3.6a12.1,12.1,0,0,1,1.9-.1l0.2,1.7a6.69,6.69,0,0,0-2,0c-1.2.2-1.7,0.7-1.6,1.5,0.3,1.9,4.5.3,5,3.6C349.4,160.3,348,161.9,345.4,162.3Z"
          transform="translate(0.85 0.85)" fill="#fff"/>
    <path d="M357.3,160.3a12.37,12.37,0,0,1-.2-1.8h0a3.46,3.46,0,0,1-3,2.5c-1.7.2-2.9-.6-3.1-2.1-0.3-2.3,1.7-3.9,5.3-4.4l-0.1-.6c-0.2-1.2-.8-1.8-2.3-1.6a5.85,5.85,0,0,0-2.8,1.2l-0.5-1.8a10.46,10.46,0,0,1,3.4-1.2c3-.4,4,0.8,4.3,2.8l0.6,4c0.1,0.9.3,1.9,0.4,2.7Zm-0.8-4.4c-3.1.4-3.6,1.5-3.5,2.3a1.22,1.22,0,0,0,1.5,1,2.65,2.65,0,0,0,2-3.1v-0.2Z"
          transform="translate(0.85 0.85)" fill="#fff"/>
    <path d="M367.7,158.9a12.37,12.37,0,0,1-.2-1.8h0a3.46,3.46,0,0,1-3,2.5c-1.7.2-2.9-.6-3.1-2.1-0.3-2.3,1.7-3.9,5.3-4.4l-0.1-.6c-0.2-1.2-.8-1.8-2.3-1.6a5.85,5.85,0,0,0-2.8,1.2l-0.5-1.8a10.46,10.46,0,0,1,3.4-1.2c3-.4,4,0.8,4.3,2.8l0.6,4c0.1,0.9.3,1.9,0.4,2.7Zm-0.8-4.5c-3.1.4-3.6,1.5-3.5,2.3a1.22,1.22,0,0,0,1.5,1,2.65,2.65,0,0,0,2-3.1v-0.2Z"
          transform="translate(0.85 0.85)" fill="#fff"/>
    <path d="M376.7,149.4c-2-.1-2.8,1.4-2.3,4.4l0.6,4-2.1.3-1.4-9.9,2-.3a14.79,14.79,0,0,1,.1,2.2h0a3,3,0,0,1,2.9-2.8Z"
          transform="translate(0.85 0.85)" fill="#fff"/>
    <path d="M380.6,155.8a1.41,1.41,0,1,1-1.6-1.2A1.38,1.38,0,0,1,380.6,155.8Z" transform="translate(0.85 0.85)"
          fill="#fff"/>
    <path d="M389.3,155.7a11.48,11.48,0,0,1-.1-1.9h0a3.44,3.44,0,0,1-2.9,2.5c-2.4.3-3.9-1.3-4.3-4.1-0.5-3.4,1.2-5.9,4.4-6.3a7.57,7.57,0,0,1,1.5-.1l-0.7-4.5,2.1-.3,2.1,14.5Zm-1.3-8.1h-1.6c-1.7.2-2.7,1.4-2.3,4.1,0.3,2,1.1,3,2.4,2.8,1.6-.2,2.2-2.2,1.9-3.9Z"
          transform="translate(0.85 0.85)" fill="#fff"/>
    <path d="M401.4,149.1l-6.3.9c0.3,2.3,1.4,3.2,3.4,2.9a6.72,6.72,0,0,0,2.8-1l0.4,1.7a7.19,7.19,0,0,1-3.3,1.1c-3.1.4-5-.9-5.5-4.4-0.4-3,.9-5.4,3.8-5.8s4.3,1.3,4.6,3.7C401.3,148.4,401.4,148.7,401.4,149.1Zm-4.6-3.1a2.33,2.33,0,0,0-1.9,2.5l4.2-.6A2,2,0,0,0,396.8,146Z"
          transform="translate(0.85 0.85)" fill="#fff"/>
</svg>