<?xml version="1.0" encoding="utf-8"?>
<!-- Generator: Adobe Illustrator 16.0.3, SVG Export Plug-In . SVG Version: 6.00 Build 0)  -->
<!DOCTYPE svg PUBLIC "-//W3C//DTD SVG 1.1//EN" "http://www.w3.org/Graphics/SVG/1.1/DTD/svg11.dtd">
<svg version="1.1" id="Ebene_1" xmlns="http://www.w3.org/2000/svg" xmlns:xlink="http://www.w3.org/1999/xlink" x="0px" y="0px"
	 width="31px" height="16.381px" viewBox="0 0 31 16.381" enable-background="new 0 0 31 16.381" xml:space="preserve">
<g>
	<path d="M29.15,3.996c-0.771,0-1.398,0.626-1.398,1.397v5.594H3.381v-9.59C3.381,0.626,2.754,0,1.98,0
		S0.583,0.626,0.583,1.397v13.586c0,0.772,0.624,1.397,1.397,1.397s1.4-0.625,1.4-1.397v-1.2h24.371v1.2
		c0,0.772,0.627,1.397,1.398,1.397s1.4-0.625,1.4-1.397v-9.59C30.551,4.622,29.922,3.996,29.15,3.996"/>
	<path d="M26.554,5.252c-1.997-1.642-14.385-1.308-15.583,0v4.137h15.583V5.252z"/>
	<path d="M7.295,9.277c1.35,0,2.445-1.094,2.445-2.445c0-1.352-1.096-2.447-2.445-2.447
		c-1.352,0-2.447,1.095-2.447,2.447C4.848,8.184,5.943,9.277,7.295,9.277"/>
</g>
</svg>
