<?xml version="1.0" encoding="utf-8"?>
<!-- Generator: Adobe Illustrator 20.0.0, SVG Export Plug-In . SVG Version: 6.00 Build 0)  -->
<svg version="1.1" id="Ebene_1" xmlns="http://www.w3.org/2000/svg" xmlns:xlink="http://www.w3.org/1999/xlink" x="0px" y="0px"
	 viewBox="0 0 768 903.5" style="enable-background:new 0 0 768 903.5;" xml:space="preserve">
<style type="text/css">
	.st0{fill:url(#XMLID_4_);}
	.st1{fill:url(#XMLID_5_);}
	.st2{fill:#FFFFFF;}
	.st3{fill:#005EA8;}
</style>
<linearGradient id="XMLID_4_" gradientUnits="userSpaceOnUse" x1="136.4629" y1="73.8785" x2="675.1633" y2="-667.5788" gradientTransform="matrix(1.2901 0 0 -1.2901 -139.5395 68.7836)">
	<stop  offset="0" style="stop-color:#E3C466"/>
	<stop  offset="9.324970e-02" style="stop-color:#FDF7CC"/>
	<stop  offset="0.1843" style="stop-color:#E3C466"/>
	<stop  offset="0.281" style="stop-color:#B58933"/>
	<stop  offset="0.3613" style="stop-color:#E3C466"/>
	<stop  offset="0.4622" style="stop-color:#FDF7CC"/>
	<stop  offset="0.5503" style="stop-color:#E3C466"/>
	<stop  offset="0.6532" style="stop-color:#B58933"/>
	<stop  offset="0.7531" style="stop-color:#E3C466"/>
	<stop  offset="0.8498" style="stop-color:#FDF7CC"/>
	<stop  offset="0.9523" style="stop-color:#E3C466"/>
</linearGradient>
<rect id="XMLID_2_" class="st0" width="768" height="903.5"/>
<linearGradient id="XMLID_5_" gradientUnits="userSpaceOnUse" x1="150.8388" y1="54" x2="660.7099" y2="-647.7779" gradientTransform="matrix(1.2901 0 0 -1.2901 -139.5395 68.7836)">
	<stop  offset="9.002790e-02" style="stop-color:#BD9609"/>
	<stop  offset="0.2755" style="stop-color:#E3C53F"/>
	<stop  offset="0.4361" style="stop-color:#FCF5B7"/>
	<stop  offset="0.595" style="stop-color:#E3C53F"/>
	<stop  offset="0.7521" style="stop-color:#BD9609"/>
	<stop  offset="0.906" style="stop-color:#E3C53F"/>
	<stop  offset="0.9964" style="stop-color:#FCF5B7"/>
</linearGradient>
<rect id="XMLID_6_" x="22.6" y="22.7" class="st1" width="722.7" height="858.2"/>
<rect id="XMLID_3_" x="22.6" y="22.7" class="st2" width="722.7" height="677.4"/>
<g>
	<path class="st3" d="M135.7,146.1c-1,4.7-2.4,7.9-4.7,10.1c-2.1,1.9-4.9,3.2-8.7,3.6c-2.1,0.2-4.5,0.3-7.5,0.3
		c-4.4,0-7.5-0.4-9.9-1.2c-2.6-0.8-4.5-2.4-5.3-4.6c-0.5-1.3-0.8-2.7-0.8-4.7c0-3.3,0.9-7.2,1.9-12.3l3.3-15.8
		c0.8-4.1,1.7-7.4,2.8-10.2c1.2-3,2.7-5.2,4.8-6.7c1.5-1.2,3.1-2,5.2-2.5c2.6-0.7,5.7-1,9.8-1c2.3,0,4.6,0.1,6.7,0.3
		c2,0.2,4,0.5,5.7,1.4c2,1.3,3,2.9,3,5.1c0,1.5-0.1,2.5-0.1,2.5c0,0.3-0.1,1-0.1,1v0.2h24.4v-0.1c0.1-0.4,0.2-0.9,0.3-1.3
		c0.6-3.2,1.3-7.1,1.3-10.8c0-1.5-0.1-3.1-0.4-4.4c-0.5-2.6-1.8-4.9-3.9-6.8c-2.8-2.5-6.9-4.4-12.3-5.5c-4.6-0.9-10.1-1.4-16.7-1.4
		h-0.1c-12.7,0-21.4,0.9-28.2,3.2c-8.2,2.7-14.1,7.1-18.5,14.1c-2.6,4-4.7,8.8-6.2,14.7c-0.4,1.4-6.4,29.6-6.7,30.8
		c-1.1,5.3-1.7,10-1.7,14c0,5.3,0.9,9.3,2.9,12.5c1.7,2.9,4.2,5,7.8,6.5c6.9,3,17.5,3.2,27.7,3.2c0.3,0,13.3-0.3,18.4-1.1
		c5.8-1,10.7-3,15.2-6.2c4.6-3.3,7.9-7.2,10.3-12.4c1-1.9,1.8-4.2,2.5-6.9c0.8-2.6,2.1-8.9,2.1-9.1v-0.2h-24L135.7,146.1z"/>
	<path class="st3" d="M406.4,146.1c-1,4.7-2.4,7.9-4.7,10.1c-2.1,1.9-4.9,3.2-8.7,3.6c-2.2,0.2-4.6,0.3-7.6,0.3
		c-4.4,0-7.5-0.4-9.9-1.2c-2.6-0.8-4.5-2.4-5.3-4.6c-0.5-1.3-0.8-2.7-0.8-4.7c0-3.3,0.9-7.2,1.9-12.3l3.3-15.8
		c0.8-4.1,1.7-7.4,2.8-10.2c1.2-3,2.7-5.2,4.8-6.7c1.5-1.2,3.1-2,5.2-2.5c2.6-0.7,5.7-1,9.8-1c2.3,0,4.6,0.1,6.7,0.3
		c2,0.2,4.1,0.5,5.7,1.4c2,1.3,3,2.9,3,5.1c0,1.5-0.1,2.5-0.1,2.5c0,0.3-0.1,1-0.1,1v0.2h24.4v-0.1c0.1-0.4,0.2-0.9,0.3-1.3
		c0.6-3.2,1.3-7.1,1.3-10.8c0-1.6-0.1-3.1-0.4-4.4c-0.5-2.6-1.8-4.9-3.9-6.8c-2.8-2.5-6.9-4.4-12.3-5.5c-4.6-0.9-10.1-1.4-16.7-1.4
		H405c-12.7,0-21.4,0.9-28.2,3.2c-8.2,2.7-14.1,7.1-18.5,14.1c-2.6,4-4.7,8.8-6.2,14.7c-0.4,1.4-6.4,29.6-6.7,30.8
		c-1.1,5.3-1.7,10-1.7,14c0,5.3,0.9,9.3,2.9,12.5c1.7,2.9,4.2,5,7.8,6.5c6.9,3,17.5,3.2,27.7,3.2c0.2,0,13.5-0.3,18.6-1.1
		c5.8-1,10.7-3,15.2-6.2c4.6-3.3,7.9-7.2,10.3-12.4c1-1.9,1.8-4.2,2.5-6.9c0.8-2.6,2.1-8.9,2.1-9.1v-0.2h-24.1L406.4,146.1z"/>
	<path class="st3" d="M299.7,100.7h45.9l3.1-14.4c0.1-0.4,0.1-0.8,0.1-1.1v-0.1c0-0.9-0.2-1.6-0.7-2.1c-0.6-0.7-1.8-1-3.2-1h-59.3
		c-1.9,0-3.4,0.4-4.4,1.2s-1.7,1.9-2,3.7l-19.7,92.5v0.2h70.2l3.9-18.7h-46.8l5-23.1h43.1l3.9-18h-43.1L299.7,100.7z"/>
	<path class="st3" d="M475.7,85.3c0-1-0.3-1.8-0.8-2.3c-0.7-0.7-1.9-1-3.3-1h-13.9c-1.4,0-2.6,0.4-3.4,1c-1.1,0.8-1.8,2.2-2.3,4.2
		l-19.6,92.2v0.2h23.4l19.8-93.5C475.7,85.9,475.7,85.6,475.7,85.3z"/>
	<path class="st3" d="M536.6,85.7c0.8-1,1-1.6,1-2v-0.3c0-0.2,0-0.3-0.1-0.4c-0.1-0.2-0.2-0.3-0.4-0.5c-0.4-0.2-0.9-0.5-1.8-0.5
		h-19.1c-1.8,0-3,0.3-4.3,1.1c-1.3,0.8-2.6,2-5,4.6l-37.8,41l-0.1,0.1l21.8,50.7v0.1h29.5l-24.5-50L536.6,85.7z"/>
	<path class="st3" d="M267.3,85.7c0-0.7-0.1-1.2-0.4-1.7c-0.2-0.4-0.6-0.8-1-1.1c-0.8-0.5-2-0.8-2.6-0.8h-12.7
		c-1.9,0-3.3,0.2-4.3,0.8c-0.9,0.5-2.1,1.5-2.8,4.4c0,0.2-3.8,17.8-6.9,32.7h-38.7c0.6-2.9,7-33,7.1-33.5c0.1-0.3,0.1-0.5,0.1-0.8
		c0-0.7-0.1-1.2-0.4-1.7c-0.2-0.4-0.6-0.8-1-1.1c-0.8-0.5-2-0.8-2.6-0.8h-12.9c-1.9,0-3.3,0.2-4.3,0.8c-0.9,0.5-2.1,1.5-2.8,4.4
		c-0.1,0.5-18.7,88.4-19.5,92.1v0.2H185l8.5-39.6h38.7l-8.4,39.4v0.2h0.2h23.4v-0.1c0.8-3.8,19.7-92.4,19.8-93
		C267.3,86.2,267.3,86,267.3,85.7z"/>
	<path class="st3" d="M591.6,119.1c-0.8,1.9-2,3.3-3.5,4.5c-3.2,2.5-8.3,4-17.1,6.1c-11.8,2.6-19.8,4.7-25.6,7.6
		c-5.7,2.9-9.1,6.3-11.6,11.7c-1.7,3.6-2.9,8-4.1,13.7l-3.3,16.8h76l3.5-17H553c0,0,0.8-4.1,1.4-5.6c0.8-2,2-3.4,3.5-4.4
		c1.4-1.1,3.3-1.8,5.5-2.4c4.3-1.2,10.3-2.1,19.2-4.2c10.8-2.8,18.3-5.9,23.4-10.8c5.2-5,8.4-12,10.6-23c0.8-4,1.3-8,1.3-11
		c0-4.3-0.8-7.6-2.4-10.2c-1.5-2.6-3.7-4.4-6.5-5.8c-5.7-2.7-13.9-3.3-23.7-3.3c-12.5,0-22.4,1.3-29.7,5.8
		c-7.3,4.4-12.4,12.7-15.3,25.9l-0.8,3.7h23.1l0.9-4.1c0.9-4,1.8-6.7,3.2-8.7c1.5-2,3.7-2.9,6.6-3.2c2-0.3,4.4-0.3,7.4-0.3
		c0.5,0,0.9,0,1.3,0c3.3-0.4,5.6-0.3,7.4,0.2c1.9,0.4,3.2,1.3,4,2.9c0.5,1,0.7,2.2,0.7,3.5c0,1.4-0.2,3.1-0.6,5.1
		C593,115.2,592.5,117.2,591.6,119.1z"/>
	<path class="st3" d="M676.3,81.3c-3.9,0-12.5-0.7-23.2,10.3c-2.7,2.8-25.3,26.4-34.4,36.1c-1.9,2-3.8,4.1-4.7,6
		c-0.7,1.3-1.6,5-2.1,7.6c-1,5.5-1.8,10.4-2.2,12.5c-0.1,0.5-0.2,1-0.2,1.4c0,1.7,0.7,2.8,1.6,3.6c0.9,0.8,2.2,1.1,3.4,1.1
		c1.1,0,44.8,0,44.8,0l-4.1,19.5l23.6-2.3l3.7-17.2h8.5l3.7-17.2h-8.5c0,0,8.5-39.3,8.7-40.8C697.8,86,691.2,81.3,676.3,81.3z
		 M663,142.8h-33.8l40.2-41.7h2.5L663,142.8z"/>
	<path class="st3" d="M678.2,184.6c-0.4-0.3-0.9-0.5-1.5-0.5c0,0-0.1,0-0.2,0l-22.3,2.1c-1.2,0.1-2.1,1.1-2.2,2.2c0,0.1,0,0.1,0,0.2
		c0,1.2,0.8,2.1,1.8,2.4l11.6,3.4c-6.4,5.5-14.7,10.7-24.2,14.6c-10.9,4.6-22.8,7.5-34.8,8.5c-2.5,0.2-4.9,0.3-7.3,0.3
		c-28.3,0-48.4-14-58.2-22.7l11.1-4.3c0.9-0.4,1.5-1.3,1.5-2.3c0-0.1,0-0.3,0-0.4c-0.2-1.2-1.2-2-2.3-2h-22.8
		c-0.8,0-1.4,0.2-1.8,0.7s-0.7,1.1-0.7,1.7l0.2,22.5c0,1.2,1,2.2,2.1,2.4c1.2,0.3,2.3-0.5,2.7-1.5l4.4-11.4
		c3.4,5.1,10.5,14,22.7,21.5c12.5,7.8,27,11.8,42.3,11.8c2.1,0,4.2-0.1,5.9-0.5l1.4-0.1c14.4-1.2,27.7-5.6,39.7-12.8
		c11.7-7.1,19.3-15.3,23.6-21.2l5.4,10.3c0.4,0.8,1.3,1.3,2.2,1.3c0.2,0,0.4,0,0.6-0.1c1.1-0.3,1.8-1.3,1.8-2.4c0,0,0,0-1.9-22
		C679,185.6,678.7,185,678.2,184.6z"/>
</g>
</svg>
